<svg version="1.2" xmlns="http://www.w3.org/2000/svg" viewBox="0 0 1557 483" width="1557" height="483">
	<title>Ansys_logo_(2019)-svg</title>
	<style>
		.s0 { fill: #ffb71b } 
		.s1 { fill: #000000 } 
	</style>
	<g id="Layer">
		<g id="Layer">
			<path id="Layer" class="s0" d="m262.4 0.5l-156.8 384.8h-105.6l157-384.8z"/>
			<path id="Layer" class="s1" d="m288.1 12.8l159.3 372.5h-113.1l-100.2-243.1z"/>
			<path id="Layer" class="s1" d="m635.9 109.6c32 0 55.8 9.3 71.4 28 15.7 18.7 23.5 46.9 23.5 84.6v160.8h-82.3v-156.9q0-27.2-10.1-39.7c-6.7-8.3-17.2-12.5-31.3-12.5-17.1 0-30.7 5.5-41.1 16.4q-15.5 16.4-15.5 43.6v150.1h-82.4v-267.3h80.1v38c9.4-14.5 21.7-25.6 36.8-33.2q22.5-11.4 50.9-11.4zm292 116.4c27.2 6.2 47.1 15.5 59.7 28q18.8 18.8 18.8 50.9 0 38.7-30.8 60.7c-20.6 14.8-48.8 22.1-84.8 22.1-24.7 0-47.3-2.8-67.8-8.4-20.6-5.6-38.3-13.7-53.2-24.2l21.9-56.6q21.8 14.7 48 22.9c17.4 5.4 35 8.1 52.8 8.1q19 0 29.7-6.2 10.6-6.3 10.6-17.2 0-9.7-7.3-15.2c-5-3.6-14.1-6.9-27.6-9.8l-43.6-9.8c-25.9-5.8-44.9-14.7-57-26.9-12.1-12.1-18.2-28.8-18.2-49.8 0-16.6 4.8-31.4 14.4-44 9.6-12.7 23.2-22.7 40.8-30 17.7-7.2 37.7-10.8 60.2-10.8q29 0 56.2 8.7c18.1 5.8 34.5 13.9 49 24.5l-21.8 54.4c-28.4-19.5-56.3-29.3-83.9-29.3-12.7 0-22.8 2.2-30 6.5q-10.9 6.6-10.9 18.5 0.1 8.6 6.6 13.6c4.3 3.3 12 6.3 22.8 9.2l45.2 10.4zm609.7 29.1c12.5 12.5 18.7 29.5 18.8 50.9q0 38.7-30.9 60.7c-20.5 14.8-48.7 22.1-84.7 22.1-24.7 0-47.3-2.8-67.9-8.4-20.5-5.6-38.2-13.7-53.1-24.2l21.8-56.6q21.8 14.7 48 22.9c17.5 5.4 35 8.1 52.8 8.1q19.1 0 29.7-6.2 10.7-6.3 10.7-17.2 0-9.7-7.4-15.2c-4.9-3.6-14-6.9-27.5-9.8l-43.7-9.8c-25.7-5.8-44.7-14.7-56.9-26.9-12.1-12.1-18.2-28.8-18.2-49.8 0-16.6 4.8-31.4 14.5-44 9.6-12.7 23.2-22.7 40.9-30 17.6-7.2 37.7-10.8 60.2-10.8q28.9 0 56.1 8.7c18.1 5.8 34.5 13.9 49.1 24.5l-21.8 54.4c-28.4-19.5-56.4-29.3-84-29.3-12.7 0-22.7 2.2-30 6.5-7.2 4.4-10.8 10.6-10.8 18.5q0 8.7 6.5 13.6c4.4 3.3 12 6.3 22.9 9.2l45.3 10.4c27.2 6.1 47.1 15.5 59.6 28zm-406.7 117.4l-102.8-254.1h79.7l64.2 156.6 64.2-156.6h79.7l-149 364.5h-79.7z"/>
		</g>
	</g>
</svg>