<svg xmlns="http://www.w3.org/2000/svg" data-name="Layer 1" version="1.1" width="209.01593635857694" height="65.84462180401556" style=""><rect id="backgroundrect" width="100%" height="100%" x="0" y="0" fill="none" stroke="none" class="" style=""/>
  <defs id="defs68">
    <style id="style66">.cls-1{fill:#fff;}.cls-2{fill:#ffb71b;}.cls-3{fill:#fdb61c;}</style>
  </defs>
  
  
  
  
  
  
<g class="currentLayer" style=""><title>Layer 1</title><polygon class="cls-2" points="34.55 0 20.7 0 0 50.51 13.86 50.51 34.55 0" id="polygon106"/><polygon class="cls-1" points="37.72 1.59 30.76 18.57 43.85 50.51 58.53 50.51 37.72 1.59" id="polygon108"/><path class="cls-1" d="M83.56999877929687,14.550001220703123 a14.51,14.51 0 0 0 -6.69,1.51 A12.29,12.29 0 0 0 72.02999877929688,20.420001220703128 v-5 H61.529998779296875 v35.14 h10.8 V30.87000122070313 a8,8 0 0 1 2,-5.73 a7.1,7.1 0 0 1 5.4,-2.14 a5,5 0 0 1 4.12,1.6400000000000001 q1.32,1.6500000000000001 1.32,5.23 v20.68 H96.02999877929688 V29.37000122070313 q0,-7.45 -3.08,-11.13 T83.56999877929687,14.550001220703123 z" id="path110"/><path class="cls-1" d="M121.89999877929688,29.87000122070313 l-5.94,-1.36 a9.19,9.19 0 0 1 -3,-1.22 a2.12,2.12 0 0 1 -0.8600000000000001,-1.79 a2.6900000000000004,2.6900000000000004 0 0 1 1.4300000000000002,-2.43 a7.6,7.6 0 0 1 3.94,-0.8600000000000001 a19.38,19.38 0 0 1 11,3.8600000000000003 L131.33999877929688,18.970001220703125 a22.35,22.35 0 0 0 -6.44,-3.22 a23.81,23.81 0 0 0 -7.37,-1.15 A20.7,20.7 0 0 0 109.61999877929688,15.970001220703125 A12.55,12.55 0 0 0 104.25999877929686,19.970001220703125 a9.31,9.31 0 0 0 -1.9,5.8 a8.84,8.84 0 0 0 2.4,6.54 c1.59,1.6 4.09,2.7800000000000002 7.48,3.55 l5.72,1.28 a10.49,10.49 0 0 1 3.6100000000000003,1.29 a2.35,2.35 0 0 1 1,2 a2.5300000000000002,2.5300000000000002 0 0 1 -1.3900000000000001,2.25 a7.72,7.72 0 0 1 -3.9,0.8200000000000001 a23.37,23.37 0 0 1 -6.95,-1.07 a24.09,24.09 0 0 1 -6.3,-3 l-2.8600000000000003,7.45 a22.29,22.29 0 0 0 7,3.18 a33.65,33.65 0 0 0 8.91,1.11 q7.08,0 11.13,-2.9 a9.29,9.29 0 0 0 4,-8 a9,9 0 0 0 -2.47,-6.69 C128.08999877929688,31.910001220703123 125.46999877929687,30.68000122070312 121.89999877929688,29.87000122070313 z" id="path112"/><path class="cls-1" d="M201.70999877929688,33.55000122070312 q-2.48,-2.46 -7.84,-3.68 l-5.94,-1.36 a9.21,9.21 0 0 1 -3,-1.22 a2.1,2.1 0 0 1 -0.8600000000000001,-1.79 a2.67,2.67 0 0 1 1.4300000000000002,-2.43 a7.54,7.54 0 0 1 3.93,-0.8600000000000001 a19.35,19.35 0 0 1 11,3.8600000000000003 L203.3199987792969,18.970001220703125 a22.41,22.41 0 0 0 -6.45,-3.22 a23.81,23.81 0 0 0 -7.37,-1.15 a20.64,20.64 0 0 0 -7.9,1.4300000000000002 A12.52,12.52 0 0 0 176.22999877929686,19.970001220703125 a9.37,9.37 0 0 0 -1.9,5.8 a8.84,8.84 0 0 0 2.4,6.54 q2.4,2.4 7.48,3.55 l5.72,1.28 a10.56,10.56 0 0 1 3.62,1.29 a2.37,2.37 0 0 1 1,2 a2.51,2.51 0 0 1 -1.3900000000000001,2.25 a7.7,7.7 0 0 1 -3.9,0.8200000000000001 a23.3,23.3 0 0 1 -6.94,-1.07 a24.09,24.09 0 0 1 -6.3,-3 l-2.8600000000000003,7.45 a22.08,22.08 0 0 0 7,3.18 a33.52,33.52 0 0 0 8.9,1.11 q7.09,0 11.13,-2.9 a9.27,9.27 0 0 0 4,-8 A9.07,9.07 0 0 0 201.70999877929688,33.55000122070312 z" id="path114"/><polygon class="cls-1" points="162.01 15.46 153.56 36.08 145.11 15.46 134.67 15.46 148.34 48.81 142.35 63.43 152.79 63.43 172.45 15.46 162.01 15.46" id="polygon116"/></g></svg>