<?xml version="1.0" encoding="UTF-8"?>
<svg version="1.1" xmlns="http://www.w3.org/2000/svg" width="708" height="358">
<path d="M0 0 C10.03318012 8.30547483 14.90800099 18.3031546 16.625 31.1875 C17.13573665 38.23125725 16.97593949 45.30653166 16.91796875 52.36328125 C16.91236211 54.38494042 16.90809707 56.4066037 16.90510559 58.42826843 C16.89374089 63.70705748 16.8643473 68.98559244 16.83099365 74.26428223 C16.79466517 80.6204478 16.78109168 86.97669911 16.76363373 93.33293915 C16.73470382 102.95130193 16.67715838 112.56910899 16.625 122.1875 C3.755 122.1875 -9.115 122.1875 -22.375 122.1875 C-22.42398438 116.75667969 -22.47296875 111.32585937 -22.5234375 105.73046875 C-22.55886042 102.27146676 -22.59484126 98.8124883 -22.6328125 95.35351562 C-22.69291039 89.87414073 -22.7510424 84.39479842 -22.796875 78.9152832 C-22.83399348 74.49312959 -22.88042207 70.0711593 -22.93306351 65.6491642 C-22.9514674 63.96968137 -22.96662587 62.29015946 -22.97834396 60.61061668 C-22.39944357 43.271989 -22.39944357 43.271989 -29.375 28.1875 C-34.89880983 23.93841551 -41.73839184 24.59523546 -48.375 25.1875 C-55.3909947 26.63328805 -59.1104799 30.47007588 -63.5625 35.8125 C-68.59484245 45.1830687 -67.71145647 56.63651761 -67.7890625 67.01171875 C-67.80781158 68.61026466 -67.82738765 70.20880107 -67.8477478 71.80732727 C-67.89868056 75.97791898 -67.93851196 80.14854264 -67.97589111 84.3192749 C-68.02328247 89.34311838 -68.08471086 94.36680817 -68.14373779 99.39052582 C-68.23147525 106.98945384 -68.30157835 114.58835953 -68.375 122.1875 C-81.245 122.1875 -94.115 122.1875 -107.375 122.1875 C-107.375 80.6075 -107.375 39.0275 -107.375 -3.8125 C-94.835 -3.8125 -82.295 -3.8125 -69.375 -3.8125 C-68.88 3.6125 -68.88 3.6125 -68.375 11.1875 C-67.42625 9.99125 -66.4775 8.795 -65.5 7.5625 C-50.3232815 -9.61754534 -18.76631227 -13.05939268 0 0 Z " fill="#FFFFFF" transform="translate(330.375,59.8125)"/>
<path d="M0 0 C16.83 0 33.66 0 51 0 C50.07533646 4.6233177 48.66502026 8.62856938 46.88671875 12.953125 C46.5655307 13.74421661 46.24434265 14.53530823 45.91342163 15.35037231 C44.84234677 17.98532644 43.7649453 20.61764504 42.6875 23.25 C41.92402633 25.12436046 41.16093218 26.99887554 40.39819336 28.87353516 C38.35597998 33.88963928 36.308267 38.90348094 34.25939941 43.91687012 C32.18810204 48.98760365 30.12172656 54.06034201 28.0546875 59.1328125 C21.49262826 75.2307647 14.91669633 91.32303716 8.328125 107.41015625 C6.8228265 111.08590058 5.31761537 114.76168067 3.8125 118.4375 C3.44925629 119.32455627 3.08601257 120.21161255 2.71176147 121.12554932 C-5.58565265 141.39278717 -13.79467094 161.69528741 -22 182 C-39.82 182 -57.64 182 -76 182 C-75.08527436 177.42637178 -73.68843419 173.57827159 -71.8515625 169.34375 C-71.52759491 168.58602295 -71.20362732 167.8282959 -70.86984253 167.04760742 C-70.16426065 165.39876217 -69.45650038 163.75084779 -68.74682617 162.10375977 C-67.20732706 158.53058065 -65.67829251 154.95295284 -64.14849854 151.37561035 C-63.33861749 149.48206714 -62.5281823 147.58876086 -61.71722412 145.69567871 C-57.67350797 136.25284198 -53.6787562 126.78959074 -49.68988037 117.32348633 C-42.97873019 101.3984898 -36.23882857 85.48595749 -29.47210693 69.58450317 C-22.66905921 53.59586571 -15.90706902 37.59000656 -9.15429688 21.58007812 C-8.76539276 20.65816177 -8.37648865 19.73624542 -7.97579956 18.78639221 C-7.25124877 17.06865475 -6.52688919 15.35083661 -5.80276489 13.63291931 C-5.47678314 12.86001053 -5.15080139 12.08710175 -4.81494141 11.29077148 C-4.39554794 10.29592995 -4.39554794 10.29592995 -3.96768188 9.2809906 C-2.65368619 6.18367951 -1.32534502 3.09247171 0 0 Z " fill="#FBB519" transform="translate(76,0)"/>
<path d="M0 0 C-2.31139169 8.61703042 -5.60795466 16.76688023 -9 25 C-13.70984096 25 -16.48580236 23.35743891 -20.5 21.1875 C-32.99801426 14.74673634 -47.84278275 10.80287754 -61.8125 15.125 C-65.59777433 17.35163196 -66.74329826 18.8109942 -68 23 C-67.86834816 25.83051461 -67.54404681 27.32296397 -65.76953125 29.53125 C-59.88502385 34.41552105 -49.48156409 35.38871061 -42.16503906 37.16650391 C-9.01025179 45.24293234 -9.01025179 45.24293234 -1 58 C4.46234186 67.24981931 4.4791416 78.74296152 2.375 89.06640625 C-1.07155301 98.89831417 -8.64550233 105.70071508 -17.66015625 110.4921875 C-38.67084816 119.97771624 -66.76850161 118.80902317 -88.29345703 111.18798828 C-95.32661923 108.49106142 -101.81223536 105.3144047 -108 101 C-107.37658609 97.4617797 -106.44678155 94.26706972 -105.15234375 90.91796875 C-104.61577148 89.52094727 -104.61577148 89.52094727 -104.06835938 88.09570312 C-103.69517578 87.13599609 -103.32199219 86.17628906 -102.9375 85.1875 C-102.56044922 84.20845703 -102.18339844 83.22941406 -101.79492188 82.22070312 C-100.86684405 79.8123999 -99.93509884 77.40558386 -99 75 C-94.40315593 75 -92.61982328 76.07432966 -88.625 78.25 C-76.97469942 84.36856984 -64.7568201 87.15764363 -51.625 87.3125 C-50.81289063 87.34150391 -50.00078125 87.37050781 -49.1640625 87.40039062 C-43.34671017 87.46098805 -38.8196237 86.38278021 -34 83 C-32.45413124 79.90826248 -32.70640479 77.40570448 -33 74 C-37.69610422 66.649576 -50.97811744 65.7930213 -58.8371582 64.05761719 C-60.79749514 63.6282862 -62.75909718 63.20474514 -64.72070312 62.78125 C-77.96075586 59.80776319 -91.94585036 55.91058523 -99.9375 44.0625 C-104.59953802 35.63867958 -105.33883732 25.84062194 -103.5 16.4453125 C-100.07945157 5.21192049 -92.66107038 -3.15341928 -82.375 -8.75 C-55.87618226 -20.6482515 -23.41851699 -17.20906173 0 0 Z " fill="#FFFFFF" transform="translate(705,68)"/>
<path d="M0 0 C-2.31139169 8.61703042 -5.60795466 16.76688023 -9 25 C-13.70984096 25 -16.48580236 23.35743891 -20.5 21.1875 C-32.99801426 14.74673634 -47.84278275 10.80287754 -61.8125 15.125 C-65.59777433 17.35163196 -66.74329826 18.8109942 -68 23 C-67.86834816 25.83051461 -67.54404681 27.32296397 -65.76953125 29.53125 C-59.88502385 34.41552105 -49.48156409 35.38871061 -42.16503906 37.16650391 C-9.01025179 45.24293234 -9.01025179 45.24293234 -1 58 C4.46234186 67.24981931 4.4791416 78.74296152 2.375 89.06640625 C-1.07155301 98.89831417 -8.64550233 105.70071508 -17.66015625 110.4921875 C-38.67084816 119.97771624 -66.76850161 118.80902317 -88.29345703 111.18798828 C-95.32661923 108.49106142 -101.81223536 105.3144047 -108 101 C-107.37658609 97.4617797 -106.44678155 94.26706972 -105.15234375 90.91796875 C-104.61577148 89.52094727 -104.61577148 89.52094727 -104.06835938 88.09570312 C-103.69517578 87.13599609 -103.32199219 86.17628906 -102.9375 85.1875 C-102.56044922 84.20845703 -102.18339844 83.22941406 -101.79492188 82.22070312 C-100.86684405 79.8123999 -99.93509884 77.40558386 -99 75 C-94.40315593 75 -92.61982328 76.07432966 -88.625 78.25 C-76.97469942 84.36856984 -64.7568201 87.15764363 -51.625 87.3125 C-50.81289063 87.34150391 -50.00078125 87.37050781 -49.1640625 87.40039062 C-43.34671017 87.46098805 -38.8196237 86.38278021 -34 83 C-32.45413124 79.90826248 -32.70640479 77.40570448 -33 74 C-37.69610422 66.649576 -50.97811744 65.7930213 -58.8371582 64.05761719 C-60.79749514 63.6282862 -62.75909718 63.20474514 -64.72070312 62.78125 C-77.96075586 59.80776319 -91.94585036 55.91058523 -99.9375 44.0625 C-104.59953802 35.63867958 -105.33883732 25.84062194 -103.5 16.4453125 C-100.07945157 5.21192049 -92.66107038 -3.15341928 -82.375 -8.75 C-55.87618226 -20.6482515 -23.41851699 -17.20906173 0 0 Z " fill="#FFFFFF" transform="translate(473,68)"/>
<path d="M0 0 C12.87 0 25.74 0 39 0 C44.649865 10.63503999 50.21338651 21.3041216 55.625 32.0625 C56.15770508 33.11501953 56.69041016 34.16753906 57.23925781 35.25195312 C57.73006836 36.23228516 58.22087891 37.21261719 58.7265625 38.22265625 C59.16564941 39.09672119 59.60473633 39.97078613 60.05712891 40.87133789 C61 43 61 43 61 45 C61.66 45 62.32 45 63 45 C63.17550385 44.44892578 63.35100769 43.89785156 63.53182983 43.33007812 C65.28646738 37.93017874 67.2870479 32.71002343 69.5390625 27.5 C69.86538666 26.73824463 70.19171082 25.97648926 70.52792358 25.19165039 C71.21023365 23.60113983 71.89430127 22.01138215 72.58007812 20.42236328 C73.63355783 17.98016102 74.68043511 15.53520315 75.7265625 13.08984375 C76.39284483 11.53889733 77.05949783 9.98811009 77.7265625 8.4375 C78.04009674 7.7053125 78.35363098 6.973125 78.67666626 6.21875 C80.88444316 1.11555684 80.88444316 1.11555684 82 0 C84.8843382 -0.08865208 87.74462158 -0.11521296 90.62890625 -0.09765625 C91.92525246 -0.09553383 91.92525246 -0.09553383 93.24778748 -0.09336853 C96.01939292 -0.08775239 98.7909188 -0.07519719 101.5625 -0.0625 C103.4368478 -0.05748708 105.31119685 -0.05292381 107.18554688 -0.04882812 C111.79039544 -0.03777772 116.39518421 -0.0205023 121 0 C120.39302248 3.52573236 119.46200804 6.5842123 118.04833984 9.8671875 C117.64129318 10.81888824 117.23424652 11.77058899 116.81486511 12.75112915 C116.368069 13.78200653 115.92127289 14.81288391 115.4609375 15.875 C114.75744926 17.51352432 114.75744926 17.51352432 114.03974915 19.18515015 C112.75710709 22.16961117 111.47010804 25.15214545 110.18105698 28.13384247 C109.10079931 30.63482073 108.02425121 33.13738778 106.94777966 35.63999748 C98.32581666 55.6842639 89.6450426 75.70343067 80.92919922 95.70703125 C80.03982056 97.74990489 79.15065699 99.79287218 78.26171875 101.8359375 C77.83475708 102.81705505 77.40779541 103.79817261 76.96789551 104.809021 C74.59073779 110.28657069 72.24239514 115.77551679 69.92431641 121.27832031 C69.1648748 123.08074692 69.1648748 123.08074692 68.39009094 124.91958618 C67.40926069 127.25235163 66.43081359 129.58612083 65.45500183 131.92098999 C65.01714859 132.96365021 64.57929535 134.00631042 64.12817383 135.08056641 C63.74059402 136.00785553 63.35301422 136.93514465 62.95368958 137.89053345 C62 140 62 140 61 141 C58.04294679 141.08868299 55.10934944 141.11520296 52.15234375 141.09765625 C50.82270348 141.09553383 50.82270348 141.09553383 49.46620178 141.09336853 C46.62326746 141.08775215 43.78041069 141.07519691 40.9375 141.0625 C39.01497509 141.05748711 37.09244896 141.05292384 35.16992188 141.04882812 C30.44658451 141.03777741 25.72330542 141.02050183 21 141 C22.45493283 137.47775265 23.91455712 133.95746595 25.375 130.4375 C25.8181958 129.36588623 26.2613916 128.29427246 26.71801758 127.19018555 C29.04954199 121.57983955 31.42813234 115.99953056 33.92578125 110.4609375 C34.38871582 109.42783447 34.85165039 108.39473145 35.32861328 107.33032227 C36.22070763 105.34915479 37.12370524 103.37285369 38.03857422 101.40209961 C38.44221191 100.50241455 38.84584961 99.60272949 39.26171875 98.67578125 C39.62225342 97.89114502 39.98278809 97.10650879 40.35424805 96.2980957 C41.73353473 91.38950383 39.38475008 87.34114257 37.296875 82.93359375 C36.45467407 81.14381104 36.45467407 81.14381104 35.59545898 79.31787109 C34.98033011 78.02440259 34.36517646 76.73094587 33.75 75.4375 C33.11404782 74.08964636 32.47872193 72.74149706 31.84399414 71.39306641 C30.53680798 68.61673744 29.22737388 65.84148587 27.91650391 63.06689453 C24.5257814 55.88155432 21.19417965 48.66871225 17.85571289 41.45898438 C15.32871422 36.00535419 12.79478594 30.55534831 10.23338318 25.11779785 C9.00966192 22.51894289 7.79009585 19.91814796 6.5708313 17.31719971 C5.98637951 16.07350567 5.39988207 14.83077071 4.81124878 13.58905029 C3.99792688 11.87299391 3.19213905 10.15337285 2.38671875 8.43359375 C1.92483154 7.45447021 1.46294434 6.47534668 0.98706055 5.46655273 C0 3 0 3 0 0 Z " fill="#FFFFFF" transform="translate(479,56)"/>
<path d="M0 0 C0.66 0 1.32 0 2 0 C11.00990982 21.3291607 20.01909499 42.65860695 29 64 C34.36395305 76.74579429 39.73602805 89.488133 45.11557007 102.22735596 C46.304583 105.04374717 47.49282869 107.86046101 48.6809082 110.67724609 C52.46209034 119.63937373 56.25120257 128.59795508 60.06373596 137.54679871 C61.84551979 141.73023582 63.62340974 145.91532245 65.40097046 150.10055542 C66.25433834 152.10669969 67.10964558 154.11202017 67.96694946 156.1164856 C69.15335338 158.89074112 70.33322775 161.66768836 71.51171875 164.4453125 C71.86696625 165.27120377 72.22221375 166.09709503 72.58822632 166.94801331 C72.90804474 167.70525192 73.22786316 168.46249054 73.55737305 169.24267578 C73.83759811 169.8997049 74.11782318 170.55673401 74.40653992 171.2336731 C75 173 75 173 75 176 C57.51 176 40.02 176 22 176 C17.50075594 167.00151189 17.50075594 167.00151189 15.96386719 163.12084961 C15.6148233 162.24490143 15.26577942 161.36895325 14.90615845 160.46646118 C14.54009491 159.53780243 14.17403137 158.60914368 13.796875 157.65234375 C13.40172699 156.65890961 13.00657898 155.66547546 12.59945679 154.64193726 C11.75272316 152.51272319 10.90745801 150.38292466 10.0635376 148.25259399 C7.83417921 142.62615998 5.59313945 137.00438768 3.3515625 131.3828125 C2.67521255 129.68603111 2.67521255 129.68603111 1.98519897 127.95497131 C-3.15802092 115.06993794 -8.42839799 102.237952 -13.7208252 89.41365051 C-14.59235963 87.29853565 -15.46004539 85.18187608 -16.32714844 83.06494141 C-17.45850573 80.30424048 -18.61047748 77.55326371 -19.77441406 74.80615234 C-20.33163021 73.4685286 -20.8886069 72.13080507 -21.4453125 70.79296875 C-21.93789551 69.62660889 -22.43047852 68.46024902 -22.93798828 67.25854492 C-25.45070448 59.54883847 -22.76987007 54.17092004 -19.765625 47.01171875 C-19.3311908 45.9539473 -18.89675659 44.89617584 -18.44915771 43.80635071 C-17.05923476 40.42926109 -15.65470814 37.05846256 -14.25 33.6875 C-13.31937737 31.43072393 -12.38967976 29.17356618 -11.4609375 26.91601562 C-7.74160776 17.89758324 -4.01138797 8.89324816 0 0 Z " fill="#FFFFFF" transform="translate(136,6)"/>
<path d="M0 0 C7.425 -0.061875 14.85 -0.12375 22.5 -0.1875 C24.82869141 -0.21481201 27.15738281 -0.24212402 29.55664062 -0.27026367 C31.42317182 -0.27903378 33.2897088 -0.28667647 35.15625 -0.29296875 C36.10854492 -0.30831665 37.06083984 -0.32366455 38.04199219 -0.33947754 C44.54585857 -0.34200495 50.08633973 0.28922618 55.59436035 4.10432434 C59.26578236 9.05568249 59.24760258 15.69045625 59.22705078 21.609375 C59.22734283 22.32255386 59.22763489 23.03573273 59.22793579 23.77052307 C59.22655701 26.09714489 59.21106542 28.42343504 59.1953125 30.75 C59.19157719 32.37524236 59.18873267 34.00048699 59.18673706 35.62573242 C59.17914137 39.88033385 59.1595283 44.13479632 59.1373291 48.38934326 C59.11678261 52.74001181 59.1077166 57.09070305 59.09765625 61.44140625 C59.07627813 69.96100803 59.04112964 78.48047066 59 87 C53.06 87 47.12 87 41 87 C40.67 61.59 40.34 36.18 40 10 C32.35969118 7.16437098 32.35969118 7.16437098 17 7 C17 33.4 17 59.8 17 87 C11.39 87 5.78 87 0 87 C0 58.29 0 29.58 0 0 Z " fill="#5A2A81" transform="translate(324,249)"/>
<path d="M0 0 C1.02416016 -0.01160156 2.04832031 -0.02320313 3.10351562 -0.03515625 C12.64502512 0.00142462 20.00554879 1.61634757 26.9375 8.375 C28.35317836 11.20635671 28.08044277 13.59871183 28.09863281 16.76489258 C28.10608017 17.74814766 28.10608017 17.74814766 28.11367798 18.75126648 C28.12830544 20.92403202 28.13510315 23.09672452 28.140625 25.26953125 C28.14637676 26.77927147 28.15213449 28.28901166 28.15789795 29.79875183 C28.16841013 32.96715638 28.17425111 36.13553554 28.17773438 39.30395508 C28.18321421 43.35934083 28.20723009 47.41438999 28.23570633 51.4696703 C28.25435386 54.5898282 28.25953946 57.70990545 28.26107025 60.83011436 C28.26409345 62.32481409 28.27211078 63.8195125 28.28525543 65.31415749 C28.30235798 67.40867111 28.3004258 69.50236823 28.29394531 71.59692383 C28.29941376 73.38323967 28.29941376 73.38323967 28.30499268 75.2056427 C27.89985345 78.69967418 27.01212523 80.56526587 24.9375 83.375 C23.0703125 84.703125 23.0703125 84.703125 21.0625 85.625 C20.40507812 85.93953125 19.74765625 86.2540625 19.0703125 86.578125 C12.94102522 88.86818838 6.63756291 88.59368902 0.1875 88.625 C-0.85921875 88.645625 -1.9059375 88.66625 -2.984375 88.6875 C-12.66567805 88.73590652 -20.0203162 87.2411292 -27.0625 80.375 C-28.47157932 77.55684135 -28.22891975 75.16878927 -28.27124023 72.0168457 C-28.28102402 71.3645549 -28.2908078 70.7122641 -28.30088806 70.04020691 C-28.33084898 67.87708575 -28.35223322 65.71402668 -28.37109375 63.55078125 C-28.37766558 62.81113821 -28.3842374 62.07149517 -28.39100838 61.30943871 C-28.42361059 57.39161466 -28.44805507 53.47381784 -28.4675293 49.5559082 C-28.48531756 46.31884958 -28.520094 43.08266624 -28.57006836 39.84594727 C-28.63040013 35.93372282 -28.6610228 32.02230761 -28.67070198 28.10964012 C-28.67923893 26.62209853 -28.69801402 25.13457753 -28.7274456 23.64730263 C-28.97235242 10.56302477 -28.97235242 10.56302477 -25.3125 6.02661133 C-18.36101911 -0.35454175 -8.94649965 -0.10172899 0 0 Z M-11.0625 10.375 C-12.13821002 13.60213005 -12.19581404 15.94935354 -12.20776367 19.34350586 C-12.21414352 20.57165512 -12.22052338 21.79980438 -12.22709656 23.06517029 C-12.22862522 24.40672771 -12.22973919 25.74828566 -12.23046875 27.08984375 C-12.2336824 28.4660292 -12.23704655 29.84221431 -12.24055481 31.21839905 C-12.24654141 34.10255729 -12.24839517 36.98668559 -12.24780273 39.87084961 C-12.24770109 43.56415312 -12.26135719 47.25726446 -12.27857494 50.95052242 C-12.28969999 53.79269796 -12.29172179 56.63482709 -12.29119301 59.47702217 C-12.29237221 60.8385643 -12.29679067 62.20010767 -12.30452538 63.56162834 C-12.31433561 65.4667602 -12.31018029 67.37194844 -12.30541992 69.27709961 C-12.30684494 70.36059189 -12.30826996 71.44408417 -12.30973816 72.56040955 C-12.06134948 75.38809768 -11.60560516 77.01545975 -10.0625 79.375 C-5.57786213 82.17789867 -0.16996487 81.91348671 4.9375 81.375 C8.44338701 80.25186069 8.44338701 80.25186069 10.9375 78.375 C12.01321002 75.14786995 12.07081404 72.80064646 12.08276367 69.40649414 C12.08914352 68.17834488 12.09552338 66.95019562 12.10209656 65.68482971 C12.10362522 64.34327229 12.10473919 63.00171434 12.10546875 61.66015625 C12.1086824 60.2839708 12.11204655 58.90778569 12.11555481 57.53160095 C12.12154141 54.64744271 12.12339517 51.76331441 12.12280273 48.87915039 C12.12270109 45.18584688 12.13635719 41.49273554 12.15357494 37.79947758 C12.16469999 34.95730204 12.16672179 32.11517291 12.16619301 29.27297783 C12.16737221 27.9114357 12.17179067 26.54989233 12.17952538 25.18837166 C12.18933561 23.2832398 12.18518029 21.37805156 12.18041992 19.47290039 C12.18184494 18.38940811 12.18326996 17.30591583 12.18473816 16.18959045 C11.93634948 13.36190232 11.48060516 11.73454025 9.9375 9.375 C3.73889654 5.50087284 -5.22901008 6.33643006 -11.0625 10.375 Z " fill="#592981" transform="translate(419.0625,248.625)"/>
<path d="M0 0 C0.98097656 -0.01160156 1.96195313 -0.02320313 2.97265625 -0.03515625 C10.66438138 -0.00443032 17.26971034 1.00172597 23.5625 5.625 C27.26132216 10.56520767 25.7498 18.67956005 25.5 24.375 C19.89 24.375 14.28 24.375 8.5 24.375 C8.36979167 20.79427083 8.23958333 17.21354167 8.109375 13.6328125 C7.86374085 10.33431296 7.86374085 10.33431296 5.66796875 8.94140625 C0.84729238 7.68195026 -3.71135441 8.34827496 -8.5 9.375 C-8.55428973 11.60389496 -8.59292338 13.83317471 -8.625 16.0625 C-8.64820313 17.30386719 -8.67140625 18.54523438 -8.6953125 19.82421875 C-8.37880064 25.57840444 -6.89926478 28.3834334 -2.61572266 32.26904297 C-1.84687744 32.9402417 -1.84687744 32.9402417 -1.0625 33.625 C-0.53188965 34.09953613 -0.0012793 34.57407227 0.54541016 35.06298828 C6.33218881 40.1974454 12.31317922 45.1109887 18.4140625 49.8671875 C22.32837214 52.97163998 25.15026194 55.61438586 25.80224609 60.76074219 C25.94022303 63.63825381 25.95823756 66.49436483 25.9375 69.375 C25.9674707 70.85226562 25.9674707 70.85226562 25.99804688 72.359375 C25.9950413 76.80763043 25.97613055 79.58010408 23.65625 83.453125 C16.49493081 89.83603993 8.30005021 89.57900229 -0.75 89.625 C-1.74902344 89.645625 -2.74804688 89.66625 -3.77734375 89.6875 C-11.67694394 89.7288051 -17.99182889 88.83837561 -24.54296875 84.23828125 C-27.2552058 80.27007813 -27.06764662 77.24542182 -26.8125 72.5625 C-26.77866211 71.38010742 -26.77866211 71.38010742 -26.74414062 70.17382812 C-26.68554161 68.24006071 -26.59586827 66.30727833 -26.5 64.375 C-21.22 64.375 -15.94 64.375 -10.5 64.375 C-10.20703125 69.30664062 -10.20703125 69.30664062 -9.9140625 74.23828125 C-9.71386253 77.53199887 -9.71386253 77.53199887 -7.5 80.375 C-3.0208651 81.86804497 1.49215951 82.09576325 5.9375 80.5 C7.65893274 79.44425899 7.65893274 79.44425899 8.5 77.375 C8.6509482 74.92209172 8.73128564 72.51641991 8.75 70.0625 C8.78867187 68.08830078 8.78867187 68.08830078 8.828125 66.07421875 C8.20636212 59.06458245 3.95174198 55.60952117 -1 51.125 C-1.62003906 50.55507324 -2.24007812 49.98514648 -2.87890625 49.39794922 C-7.43273788 45.24737013 -12.12149478 41.33590872 -17 37.5703125 C-25.73048568 29.90385476 -25.73048568 29.90385476 -26.26171875 23.74609375 C-26.26828182 22.10138952 -26.24302438 20.45627983 -26.1875 18.8125 C-26.20232422 17.98814453 -26.21714844 17.16378906 -26.23242188 16.31445312 C-26.17452891 12.05421196 -25.70137672 9.72095488 -23.51953125 5.97265625 C-16.59908624 0.01910394 -8.80104399 -0.10408593 0 0 Z " fill="#592981" transform="translate(655.5,247.625)"/>
<path d="M0 0 C0.98097656 -0.01160156 1.96195313 -0.02320313 2.97265625 -0.03515625 C10.66438138 -0.00443032 17.26971034 1.00172597 23.5625 5.625 C27.26624962 10.57178887 25.83632406 18.50053972 25.5 24.375 C22.85409986 24.40184679 20.20846904 24.42176357 17.5625 24.4375 C16.80775391 24.44587891 16.05300781 24.45425781 15.27539062 24.46289062 C13.35005687 24.47152441 11.42464419 24.42724333 9.5 24.375 C7.20551942 22.08051942 8.10615919 16.48581647 7.9765625 13.37890625 C7.81929687 12.38761719 7.66203125 11.39632813 7.5 10.375 C4.35388747 8.27759164 3.58811922 8.12171781 0 8.1875 C-1.16015625 8.19716797 -1.16015625 8.19716797 -2.34375 8.20703125 C-4.68348849 8.3019435 -4.68348849 8.3019435 -7.5 9.375 C-8.83104832 12.03709665 -8.70562679 14.15199488 -8.75 17.125 C-8.77578125 18.15109375 -8.8015625 19.1771875 -8.828125 20.234375 C-8.08629065 27.33478951 -4.23891554 30.93228943 1 35.1875 C1.62003906 35.70594482 2.24007812 36.22438965 2.87890625 36.75854492 C5.77810519 39.17442001 8.70944125 41.548803 11.65625 43.90625 C12.5946875 44.6590625 13.533125 45.411875 14.5 46.1875 C15.325 46.83332031 16.15 47.47914063 17 48.14453125 C17.825 48.88058594 18.65 49.61664063 19.5 50.375 C20.03544434 50.84583008 20.57088867 51.31666016 21.12255859 51.80175781 C24.58144716 55.23711653 25.89742061 57.79480336 26.2265625 62.6953125 C26.22392959 64.63050269 26.18938484 66.56587938 26.125 68.5 C26.13466797 69.96373047 26.13466797 69.96373047 26.14453125 71.45703125 C26.07841308 75.86290553 25.95482138 78.62239031 23.64453125 82.4453125 C16.52071597 88.85544865 8.28070945 88.57910059 -0.75 88.625 C-1.74902344 88.645625 -2.74804688 88.66625 -3.77734375 88.6875 C-11.67694394 88.7288051 -17.99182889 87.83837561 -24.54296875 83.23828125 C-27.2552058 79.27007813 -27.06764662 76.24542182 -26.8125 71.5625 C-26.77866211 70.38010742 -26.77866211 70.38010742 -26.74414062 69.17382812 C-26.68554161 67.24006071 -26.59586827 65.30727833 -26.5 63.375 C-21.22 63.375 -15.94 63.375 -10.5 63.375 C-10.3046875 66.36979167 -10.109375 69.36458333 -9.9140625 72.359375 C-9.52185226 75.21584954 -9.12370003 77.01124622 -7.5 79.375 C-3.0208651 80.86804497 1.49215951 81.09576325 5.9375 79.5 C7.65893274 78.44425899 7.65893274 78.44425899 8.5 76.375 C8.67603147 73.96250308 8.76744968 71.54349105 8.8125 69.125 C8.84988281 67.82046875 8.88726562 66.5159375 8.92578125 65.171875 C8.08616317 57.68463856 3.02621145 53.74862056 -2.4375 49.1875 C-3.41916138 48.3514624 -3.41916138 48.3514624 -4.4206543 47.49853516 C-7.69976091 44.7109189 -11.00375873 41.95310855 -14.3046875 39.19140625 C-14.89644775 38.69471436 -15.48820801 38.19802246 -16.09790039 37.6862793 C-17.21585127 36.74979845 -18.33728459 35.81745452 -19.46264648 34.88989258 C-25.23874406 30.07139415 -25.23874406 30.07139415 -25.80639648 26.38549805 C-25.87664061 23.94391836 -25.92090895 21.50507194 -25.9375 19.0625 C-25.97037109 18.22009766 -26.00324219 17.37769531 -26.03710938 16.50976562 C-26.07457886 12.15308636 -25.74908246 9.80829455 -23.53515625 5.95703125 C-16.57919815 0.03954309 -8.8130293 -0.10422768 0 0 Z " fill="#592981" transform="translate(229.5,248.625)"/>
<path d="M0 0 C0.98097656 -0.01160156 1.96195313 -0.02320313 2.97265625 -0.03515625 C10.66438138 -0.00443032 17.26971034 1.00172597 23.5625 5.625 C27.26624962 10.57178887 25.83632406 18.50053972 25.5 24.375 C22.85409986 24.40184679 20.20846904 24.42176357 17.5625 24.4375 C16.80775391 24.44587891 16.05300781 24.45425781 15.27539062 24.46289062 C13.35005687 24.47152441 11.42464419 24.42724333 9.5 24.375 C7.20551942 22.08051942 8.10615919 16.48581647 7.9765625 13.37890625 C7.81929687 12.38761719 7.66203125 11.39632813 7.5 10.375 C4.35388747 8.27759164 3.58811922 8.12171781 0 8.1875 C-1.16015625 8.19716797 -1.16015625 8.19716797 -2.34375 8.20703125 C-4.68348849 8.3019435 -4.68348849 8.3019435 -7.5 9.375 C-8.83104832 12.03709665 -8.70562679 14.15199488 -8.75 17.125 C-8.77578125 18.15109375 -8.8015625 19.1771875 -8.828125 20.234375 C-8.08629065 27.33478951 -4.23891554 30.93228943 1 35.1875 C1.62003906 35.70594482 2.24007812 36.22438965 2.87890625 36.75854492 C5.77810519 39.17442001 8.70944125 41.548803 11.65625 43.90625 C12.5946875 44.6590625 13.533125 45.411875 14.5 46.1875 C15.325 46.83332031 16.15 47.47914063 17 48.14453125 C17.825 48.88058594 18.65 49.61664063 19.5 50.375 C20.03544434 50.84583008 20.57088867 51.31666016 21.12255859 51.80175781 C24.58144716 55.23711653 25.89742061 57.79480336 26.2265625 62.6953125 C26.22392959 64.63050269 26.18938484 66.56587938 26.125 68.5 C26.13466797 69.96373047 26.13466797 69.96373047 26.14453125 71.45703125 C26.07841308 75.86290553 25.95482138 78.62239031 23.64453125 82.4453125 C16.52071597 88.85544865 8.28070945 88.57910059 -0.75 88.625 C-1.74902344 88.645625 -2.74804688 88.66625 -3.77734375 88.6875 C-11.67694394 88.7288051 -17.99182889 87.83837561 -24.54296875 83.23828125 C-27.2552058 79.27007813 -27.06764662 76.24542182 -26.8125 71.5625 C-26.77866211 70.38010742 -26.77866211 70.38010742 -26.74414062 69.17382812 C-26.68554161 67.24006071 -26.59586827 65.30727833 -26.5 63.375 C-21.22 63.375 -15.94 63.375 -10.5 63.375 C-10.3046875 66.36979167 -10.109375 69.36458333 -9.9140625 72.359375 C-9.52185226 75.21584954 -9.12370003 77.01124622 -7.5 79.375 C-3.0208651 80.86804497 1.49215951 81.09576325 5.9375 79.5 C7.65893274 78.44425899 7.65893274 78.44425899 8.5 76.375 C8.64977039 74.12844413 8.72150174 71.87636232 8.75 69.625 C8.78867187 67.80742187 8.78867187 67.80742187 8.828125 65.953125 C8.25437112 59.6964756 5.667708 56.08612492 1 52.0625 C-0.32644531 50.91201172 -0.32644531 50.91201172 -1.6796875 49.73828125 C-5.38754856 46.63127856 -9.1249499 43.56280668 -12.87890625 40.51171875 C-15.28963387 38.54649072 -17.69045094 36.57423781 -20.0625 34.5625 C-20.68253906 34.04042969 -21.30257812 33.51835937 -21.94140625 32.98046875 C-26.10428261 28.6923931 -25.89611635 24.19255152 -25.9375 18.5 C-25.97037109 17.70980469 -26.00324219 16.91960937 -26.03710938 16.10546875 C-26.07570774 11.88771979 -25.70059005 9.72034988 -23.53515625 5.9921875 C-17.31998278 -0.31175851 -8.26859633 -0.09778892 0 0 Z " fill="#592981" transform="translate(538.5,248.625)"/>
<path d="M0 0 C44.59807356 0 44.59807356 0 50.52929688 5.23046875 C52.41008192 8.77223927 52.51716499 11.30833155 52.53125 15.3125 C52.5350769 16.00384033 52.53890381 16.69518066 52.54284668 17.4074707 C52.54555787 18.86313338 52.53825211 20.31884544 52.52148438 21.77441406 C52.5000584 23.99395045 52.52130772 26.21025096 52.546875 28.4296875 C52.54423158 29.84896543 52.53910629 31.26824135 52.53125 32.6875 C52.52673828 33.97011719 52.52222656 35.25273437 52.51757812 36.57421875 C51.91190436 40.58309338 50.88394001 42.19547237 48 45 C41.60472416 48.76036088 34.10782 48.36253698 26.9375 48.1875 C23.328125 48.125625 19.71875 48.06375 16 48 C16 60.87 16 73.74 16 87 C10.72 87 5.44 87 0 87 C0 58.29 0 29.58 0 0 Z M16 7 C16 18.22 16 29.44 16 41 C25.68957931 41.47591941 25.68957931 41.47591941 34 39 C37.20189713 35.79810287 36.29542548 32.09369853 36.32226562 27.72851562 C36.31743164 25.91383789 36.31743164 25.91383789 36.3125 24.0625 C36.32861328 22.85658203 36.34472656 21.65066406 36.36132812 20.40820312 C36.36197266 19.25384766 36.36261719 18.09949219 36.36328125 16.91015625 C36.36626221 15.84933838 36.36924316 14.78852051 36.37231445 13.69555664 C36.21829645 10.99381791 36.21829645 10.99381791 34.66479492 9.19311523 C28.97889166 5.11817621 23.4331857 7 16 7 Z " fill="#592981" transform="translate(456,249)"/>
<path d="M0 0 C5.94 0 11.88 0 18 0 C10.02185165 25.32581044 1.91832901 50.61000085 -6.25 75.875 C-6.48795162 76.61105846 -6.72590324 77.34711693 -6.97106552 78.10548019 C-8.5686395 83.04708085 -10.16683183 87.98848116 -11.765625 92.9296875 C-11.97532488 93.57782347 -12.18502476 94.22595943 -12.40107918 94.89373589 C-12.98889755 96.71029895 -13.5769621 98.52678235 -14.16503906 100.34326172 C-14.66248627 101.8798494 -14.66248627 101.8798494 -15.16998291 103.44747925 C-15.77261562 105.30073325 -16.38374384 107.15123151 -17 109 C-22.61 109 -28.22 109 -34 109 C-33.25886104 103.81202726 -32.4230798 99.74247018 -30.82617188 94.85668945 C-30.60639679 94.17887924 -30.3866217 93.50106903 -30.16018677 92.80271912 C-29.43512584 90.57110033 -28.70196258 88.34223367 -27.96875 86.11328125 C-27.45313447 84.5314345 -26.93804886 82.94941493 -26.42346191 81.36723328 C-25.06417333 77.19243978 -23.69809374 73.01990018 -22.33044434 68.84783936 C-20.97435984 64.70772514 -19.62396597 60.56575742 -18.2734375 56.42382812 C-16.69092929 51.5712481 -15.10807996 46.71878259 -13.52246094 41.86721802 C-8.96737526 27.92665127 -4.47063659 13.96788454 0 0 Z " fill="#592981" transform="translate(303,249)"/>
<path d="M0 0 C1.58206057 0.00667536 3.16410534 0.0186375 4.74609375 0.03515625 C5.55240234 0.03966797 6.35871094 0.04417969 7.18945312 0.04882812 C9.18753131 0.06065107 11.18557158 0.07858711 13.18359375 0.09765625 C5.48180922 25.24268199 -2.38955266 50.33322449 -10.34851456 75.3978653 C-11.06848619 77.66671075 -11.78725829 79.93593305 -12.50570679 82.20526123 C-13.64655246 85.80817977 -14.79058351 89.41007127 -15.93713188 93.01117897 C-16.3649616 94.35648784 -16.7917567 95.70212621 -17.21748543 97.04810143 C-17.80256504 98.89700372 -18.39188733 100.74456186 -18.98144531 102.59204102 C-19.47889252 104.15741356 -19.47889252 104.15741356 -19.98638916 105.75440979 C-20.81640625 108.09765625 -20.81640625 108.09765625 -21.81640625 109.09765625 C-24.51295479 109.17085246 -27.18332083 109.19008162 -29.87890625 109.16015625 C-30.63751953 109.15564453 -31.39613281 109.15113281 -32.17773438 109.14648438 C-34.05732496 109.13466305 -35.93687524 109.11672703 -37.81640625 109.09765625 C-37.24629909 104.47770497 -36.37239813 100.22958504 -34.94970703 95.79980469 C-34.56450897 94.59085037 -34.17931091 93.38189606 -33.78244019 92.13630676 C-33.35895314 90.8265202 -32.9353768 89.51676251 -32.51171875 88.20703125 C-32.07127514 86.83115248 -31.63135498 85.45510605 -31.19192505 84.0789032 C-30.02206137 80.41953504 -28.84562445 76.76231251 -27.66786194 73.10548019 C-26.45795328 69.34508465 -25.25392675 65.58280834 -24.04980469 61.82055664 C-23.5703208 60.3225834 -23.09082864 58.82461281 -22.61132812 57.3266449 C-22.37540955 56.58960264 -22.13949097 55.85256039 -21.89642334 55.09318352 C-21.18543451 52.87293575 -20.47367179 50.6529374 -19.76171875 48.43299866 C-17.1516291 40.29173651 -14.56017338 32.14519602 -12.01171875 23.984375 C-11.74767242 23.13910248 -11.4836261 22.29382996 -11.21157837 21.42294312 C-10.26972285 18.40414028 -9.3293288 15.38490703 -8.39459229 12.3638916 C-7.79278936 10.41893845 -7.18754017 8.47505257 -6.58203125 6.53125 C-6.26008789 5.49025146 -5.93814453 4.44925293 -5.60644531 3.37670898 C-4.31159362 -0.35859404 -4.31798224 0.11049085 0 0 Z " fill="#592981" transform="translate(615.81640625,248.90234375)"/>
<path d="M0 0 C164.01 0 328.02 0 497 0 C497 0.66 497 1.32 497 2 C332.99 2 168.98 2 0 2 C0 1.34 0 0.68 0 0 Z " fill="#FFFFFF" transform="translate(0,195)"/>
<path d="M0 0 C5.94 0 11.88 0 18 0 C19.67521608 4.97954139 21.3485082 9.95964899 23.01708984 14.94140625 C23.584351 16.63318113 24.15269236 18.32459425 24.72216797 20.015625 C25.54424159 22.45737083 26.36232012 24.90042533 27.1796875 27.34375 C27.43185028 28.08991577 27.68401306 28.83608154 27.94381714 29.6048584 C28.65235754 31.73003382 29.33381835 33.86119477 30 36 C30.22253448 36.69484497 30.44506897 37.38968994 30.67434692 38.10559082 C32.00471831 42.67673903 32.04589198 45.56902841 30.4453125 50.03125 C29.89423828 51.61679687 29.89423828 51.61679687 29.33203125 53.234375 C28.93371094 54.31203125 28.53539062 55.3896875 28.125 56.5 C27.53912109 58.16289062 27.53912109 58.16289062 26.94140625 59.859375 C25.97970994 62.58027188 24.99902536 65.29263492 24 68 C23.34 68 22.68 68 22 68 C14.38669846 45.41636913 7.01321923 22.77744654 0 0 Z " fill="#592A81" transform="translate(256,249)"/>
<path d="M0 0 C5.94 0 11.88 0 18 0 C32.34944193 43.04832578 32.34944193 43.04832578 27.5 57.4375 C27.16613281 58.45521484 26.83226562 59.47292969 26.48828125 60.52148438 C25.66799202 63.01750733 24.83838507 65.51000909 24 68 C23.34 68 22.68 68 22 68 C14.38669846 45.41636913 7.01321923 22.77744654 0 0 Z " fill="#592982" transform="translate(565,249)"/>
<path d="M0 0 C1.65 0 3.3 0 5 0 C5.66 0.66 6.32 1.32 7 2 C7.83724609 1.51466797 7.83724609 1.51466797 8.69140625 1.01953125 C13.46943668 -1.09056341 19.01484729 -0.6904879 23.875 1 C28.23604141 5.10450957 29.7877924 8.79775666 30.3515625 14.6484375 C30.53147598 22.97352507 30.14335316 28.47331109 24.4375 34.875 C20.96555272 37.58120452 17.63800358 37.4841839 13.3671875 37.37109375 C11 37 11 37 7 35 C6.67 39.95 6.34 44.9 6 50 C4.02 50 2.04 50 0 50 C0 33.5 0 17 0 0 Z M6 10 C5.42281895 12.84847458 5.44096768 15.60249693 5.5 18.5 C5.48453125 19.25925781 5.4690625 20.01851563 5.453125 20.80078125 C5.47927716 24.53400204 5.56411716 26.41667265 7.84765625 29.47265625 C10.66085916 31.46895814 12.55348848 31.92966303 16 32 C19.52906067 30.39588152 20.82772908 29.25840638 23 26 C24.71791046 19.56752324 23.86115657 13.96179321 21 8 C18.60713116 5.60713116 17.90552906 5.67949384 14.625 5.625 C13.85414062 5.59664063 13.08328125 5.56828125 12.2890625 5.5390625 C8.97422011 6.20655636 7.92944942 7.2226311 6 10 Z " fill="#FFFFFF" transform="translate(1,264)"/>
<path d="M0 0 C4.14460144 2.03594457 6.35795458 3.71360977 8 8 C8.31884766 11.11621094 8.31884766 11.11621094 8.4140625 14.734375 C8.45273437 16.02988281 8.49140625 17.32539063 8.53125 18.66015625 C8.56270267 20.02343284 8.59395007 21.38671418 8.625 22.75 C8.66320469 24.12893028 8.70225787 25.50783734 8.7421875 26.88671875 C8.83648004 30.25767718 8.9220822 33.62862978 9 37 C6.125 37.1875 6.125 37.1875 3 37 C2.34 36.01 1.68 35.02 1 34 C0.44054687 34.48597656 -0.11890625 34.97195313 -0.6953125 35.47265625 C-4.55962886 38.03358455 -8.52345194 37.65562042 -13 37 C-16.10943898 35.67272444 -18.45038122 34.09923757 -20 31 C-20.52258726 26.63939483 -20.54512358 23.09024715 -18.5625 19.125 C-12.77702975 14.32729296 -6.29510763 13.60208504 1 14 C0.34 11.69 -0.32 9.38 -1 7 C-6.55493924 5.97296252 -6.55493924 5.97296252 -12 7 C-12.33 8.32 -12.66 9.64 -13 11 C-15.31 11 -17.62 11 -20 11 C-18.75892597 6.03570389 -17.23893588 3.86128172 -13 1 C-9.05322303 -0.97338848 -4.30160477 -0.44290148 0 0 Z M-12 21 C-14.29637779 23.75895635 -14.29637779 23.75895635 -13.75 26.5625 C-13.16191948 29.15000567 -13.16191948 29.15000567 -11 31 C-7.04264647 31.31914141 -4.20575602 31.45215851 -0.5 30.0625 C1.94509198 26.70049852 1.30321243 23.01756473 1 19 C-3.71704317 18.76990033 -7.55578714 19.37615299 -12 21 Z " fill="#FFFFFF" transform="translate(53,264)"/>
<path d="M0 0 C4.45146251 2.18526342 7.18885145 4.9394521 10 9 C12.04065442 15.12196326 11.87552194 22.41951428 9.8125 28.5 C7.00821061 32.36798537 4.60762016 35.46412661 0 37 C-5.2674928 37.50442239 -9.63179168 37.6716659 -14.4375 35.3125 C-18.82815344 31.35020299 -21.78173932 28.1437933 -22.203125 22.07421875 C-22.36353341 10.48471121 -22.36353341 10.48471121 -19 6 C-12.94767295 0.10906834 -8.30331151 -0.84559891 0 0 Z M-12 8 C-15.96325994 12.21276299 -15.55094389 16.3140882 -15.4140625 21.8515625 C-14.79708844 26.54289357 -13.71398475 28.09340324 -10 31 C-6.38470858 32.28041571 -4.8232965 32.36378217 -1.3125 30.8125 C2.07675295 28.1560585 3.79497974 26.32238065 4.46875 21.9765625 C4.74555698 14.69569266 4.74555698 14.69569266 1.875 8.25 C-3.21903747 4.26336198 -6.86889757 3.97832512 -12 8 Z " fill="#FFFFFF" transform="translate(140,264)"/>
<path d="M0 0 C0.91007812 0.00902344 1.82015625 0.01804688 2.7578125 0.02734375 C3.80582031 0.04474609 3.80582031 0.04474609 4.875 0.0625 C4.875 2.0425 4.875 4.0225 4.875 6.0625 C2.565 6.3925 0.255 6.7225 -2.125 7.0625 C-3.115 9.7025 -4.105 12.3425 -5.125 15.0625 C-2.485 15.0625 0.155 15.0625 2.875 15.0625 C2.875 17.0425 2.875 19.0225 2.875 21.0625 C0.235 21.0625 -2.405 21.0625 -5.125 21.0625 C-5.125 30.9625 -5.125 40.8625 -5.125 51.0625 C-7.435 51.0625 -9.745 51.0625 -12.125 51.0625 C-12.125 41.1625 -12.125 31.2625 -12.125 21.0625 C-13.775 21.0625 -15.425 21.0625 -17.125 21.0625 C-17.125 19.0825 -17.125 17.1025 -17.125 15.0625 C-15.475 15.0625 -13.825 15.0625 -12.125 15.0625 C-12.09921875 14.47082031 -12.0734375 13.87914062 -12.046875 13.26953125 C-11.66954807 8.01268101 -11.06697007 4.88501643 -7.125 1.0625 C-4.60024538 -0.19987731 -2.81299534 -0.03606404 0 0 Z " fill="#FFFFFF" transform="translate(170.125,248.9375)"/>
<path d="M0 0 C2.31 0 4.62 0 7 0 C7 2.64 7 5.28 7 8 C9.31 8 11.62 8 14 8 C14 9.98 14 11.96 14 14 C11.69 14 9.38 14 7 14 C7.13847638 17.62532066 7.28702643 21.25015904 7.4375 24.875 C7.47681641 25.90753906 7.51613281 26.94007813 7.55664062 28.00390625 C7.61948242 29.48310547 7.61948242 29.48310547 7.68359375 30.9921875 C7.72025146 31.90339355 7.75690918 32.81459961 7.79467773 33.75341797 C7.86577065 36.03483481 7.86577065 36.03483481 9 38 C10.97888961 38.72693904 12.97954558 39.39816251 15 40 C14.67 41.65 14.34 43.3 14 45 C5.89108911 45.62376238 5.89108911 45.62376238 2.5 43.25 C-0.02748606 39.45877091 -0.12258922 36.06605907 -0.09765625 31.578125 C-0.09443359 30.55332031 -0.09121094 29.52851563 -0.08789062 28.47265625 C-0.07951172 27.40917969 -0.07113281 26.34570312 -0.0625 25.25 C-0.05798828 24.17105469 -0.05347656 23.09210938 -0.04882812 21.98046875 C-0.03705727 19.32025617 -0.02061399 16.66015635 0 14 C-1.98 14 -3.96 14 -6 14 C-6 12.02 -6 10.04 -6 8 C-4.02 8 -2.04 8 0 8 C0 5.36 0 2.72 0 0 Z " fill="#FFFFFF" transform="translate(92,256)"/>
<path d="M0 0 C2.31 0 4.62 0 7 0 C7 0.66 7 1.32 7 2 C7.99 1.34 8.98 0.68 10 0 C12.04296875 -0.1953125 12.04296875 -0.1953125 14.1875 -0.125 C16.0746875 -0.063125 16.0746875 -0.063125 18 0 C18 2.31 18 4.62 18 7 C16.72125 7.12375 15.4425 7.2475 14.125 7.375 C10.65209064 7.69042399 10.65209064 7.69042399 8 10 C7.62792646 12.71615864 7.62792646 12.71615864 7.5859375 15.8828125 C7.54726562 17.04941406 7.50859375 18.21601563 7.46875 19.41796875 C7.4378125 20.64128906 7.406875 21.86460937 7.375 23.125 C7.33632812 24.35605469 7.29765625 25.58710938 7.2578125 26.85546875 C7.1633001 29.90349376 7.07774506 32.95150862 7 36 C4.69 36 2.38 36 0 36 C0 24.12 0 12.24 0 0 Z " fill="#FFFFFF" transform="translate(65,264)"/>
<path d="M0 0 C51.81 0 103.62 0 157 0 C157 0.66 157 1.32 157 2 C104.86 2 52.72 2 -1 2 C-0.67 1.34 -0.34 0.68 0 0 Z " fill="#FFFFFF" transform="translate(545,195)"/>
<path d="M0 0 C2.8100346 1.79363911 4.50940468 3.01880935 6 6 C6.5811138 13.08958838 6.5811138 13.08958838 4.125 16.9375 C0.8698054 20.09695358 -1.42413238 20.33421243 -5.9609375 20.29296875 C-9.13134567 19.83745033 -10.8192402 18.24684343 -13 16 C-14.60086627 12.79826746 -14.49917089 9.47422941 -14 6 C-10.32759145 0.24655994 -6.71744997 -0.96515086 0 0 Z M-10 4 C-11.88886253 6.51848338 -12.00715839 7.82819868 -11.875 11 C-10.85227852 14.50647364 -9.98496444 15.90245742 -7 18 C-3.35097722 18.60817046 -1.73171415 18.51417751 1.3125 16.375 C3.39744561 13.44063211 3.92657532 11.5978095 4 8 C3.17020292 5.08921756 3.17020292 5.08921756 1 3 C-3.18233198 1.859364 -6.44214569 1.23277998 -10 4 Z " fill="#592981" transform="translate(701,250)"/>
<path d="M0 0 C3.375 -0.125 3.375 -0.125 7 0 C7.66 0.66 8.32 1.32 9 2 C8.70241581 4.3381615 8.36760731 6.67182036 8 9 C8.33 9.99 8.66 10.98 9 12 C8.01 12 7.02 12 6 12 C5.71125 11.360625 5.4225 10.72125 5.125 10.0625 C4.17176549 7.84793921 4.17176549 7.84793921 2 7 C2 8.65 2 10.3 2 12 C1.34 12 0.68 12 0 12 C0 8.04 0 4.08 0 0 Z M2 2 C2 2.99 2 3.98 2 5 C3.32 5 4.64 5 6 5 C6 4.01 6 3.02 6 2 C4.68 2 3.36 2 2 2 Z " fill="#592981" transform="translate(693,254)"/>
</svg>
