<?xml version="1.0" encoding="utf-8"?>
<!-- Generator: Adobe Illustrator 28.3.0, SVG Export Plug-In . SVG Version: 6.00 Build 0)  -->
<svg version="1.1" id="Layer_1" xmlns="http://www.w3.org/2000/svg" xmlns:xlink="http://www.w3.org/1999/xlink" x="0px" y="0px"
	 viewBox="0 0 373.58 151.38" style="enable-background:new 0 0 373.58 151.38;" xml:space="preserve">
<style type="text/css">
	.st0{fill:#5A2A82;}
</style>
<g>
	<g>
		<path class="st0" d="M70.46,57.67c0-1.92-0.96-3.37-5.22-3.37s-5.22,1.44-5.22,3.37v5.22c0,1.58,0.55,3.16,2.06,4.47L76.5,79.71
			c2.06,1.72,3.3,3.85,3.3,6.04v7.83c0,4.67-5.49,7.28-14.56,7.28c-10.03,0-14.83-2.26-14.83-7.28v-6.8h9.07v6.52
			c0,2.34,1.79,3.71,5.77,3.71c3.71,0,5.5-1.37,5.5-3.71v-6.94c0-1.72-0.69-3.02-2.61-4.74L54.8,70.03
			c-2.47-2.13-3.85-3.78-3.85-6.32v-5.97c0-4.88,5.08-7.28,14.29-7.28c10.17,0,14.29,2.41,14.29,6.94v6.32h-9.06v-6.05H70.46z"/>
		<path class="st0" d="M157.89,58.72c0-4.87,3.71-8.38,15.93-8.38s15.93,3.5,15.93,8.38v33.65c0,4.88-3.71,8.38-15.93,8.38
			c-12.23,0-15.94-3.5-15.94-8.38L157.89,58.72z M166.95,92.24c0,2.75,1.1,4.67,6.87,4.67c5.77,0,6.87-1.92,6.87-4.67V58.86
			c0-2.75-1.1-4.67-6.87-4.67c-5.77,0-6.87,1.92-6.87,4.67V92.24z"/>
		<path class="st0" d="M194.76,50.76h14.43c11.68,0,15.11,1.92,15.11,7.56l-0.01,12.16c0,5.63-3.43,7.56-15.11,7.56h-5.36v22.32
			h-9.07L194.76,50.76L194.76,50.76z M208.23,74.18c4.12,0,7-0.55,7-3.09V57.7c0-2.54-2.88-3.09-7-3.09h-4.4v19.57H208.23z"/>
		<path class="st0" d="M246.94,57.56c0-1.93-0.96-3.37-5.22-3.37s-5.23,1.44-5.23,3.37v5.22c0,1.58,0.55,3.16,2.06,4.46l14.42,12.36
			c2.06,1.72,3.29,3.84,3.29,6.04v7.83c0,4.67-5.49,7.28-14.56,7.28c-10.03,0-14.84-2.27-14.84-7.28v-6.79h9.07v6.53
			c0,2.34,1.79,3.71,5.77,3.71c3.71,0,5.49-1.37,5.49-3.71v-6.94c0-1.72-0.68-3.02-2.61-4.74l-13.32-11.61
			c-2.47-2.13-3.85-3.78-3.85-6.31v-5.98c0-4.88,5.08-7.28,14.29-7.28c10.16,0,14.28,2.4,14.28,6.94v6.32h-9.07v-6.05H246.94z"/>
		<path class="st0" d="M313.85,57.56c0-1.92-0.97-3.36-5.22-3.36c-4.26,0-5.22,1.44-5.22,3.36v5.22c0,1.58,0.55,3.16,2.06,4.46
			l14.42,12.37c2.06,1.72,3.3,3.84,3.3,6.04v7.83c0,4.67-5.5,7.28-14.56,7.28c-10.03,0-14.84-2.27-14.84-7.28v-6.8h9.07l-0.01,6.53
			c0,2.34,1.79,3.71,5.78,3.71c3.7,0,5.49-1.37,5.49-3.71v-6.94c0-1.72-0.69-3.02-2.61-4.74l-13.32-11.61
			c-2.47-2.13-3.85-3.78-3.85-6.32v-5.98c0-4.87,5.08-7.28,14.29-7.28c10.16,0,14.28,2.41,14.28,6.94v6.32h-9.06V57.56z"/>
		<polygon class="st0" points="107.85,50.76 116.93,50.76 97.06,113.01 87.99,113.01 		"/>
		<polygon class="st0" points="93.53,89.43 81.25,50.87 90.33,50.87 98.07,75.18 		"/>
		<polygon class="st0" points="284.24,50.76 293.31,50.76 273.45,113.02 264.37,113.02 		"/>
		<polygon class="st0" points="269.96,89.32 257.68,50.76 266.75,50.76 274.5,75.07 		"/>
		<g>
			<path class="st0" d="M152.3,100.35h0.04V58.33c0-5.63-3.43-7.56-15.11-7.56h-17.48v49.59h9.06l0.01-0.01V54.62h7.46
				c4.12,0,7,0.55,7,3.09v42.64H152.3z"/>
		</g>
		<path class="st0" d="M326.7,56.88c0-3.31,2.69-5.76,5.87-5.76c3.14,0,5.83,2.44,5.83,5.76c0,3.35-2.68,5.79-5.83,5.79
			C329.39,62.67,326.7,60.23,326.7,56.88z M332.57,61.71c2.61,0,4.67-2.05,4.67-4.83c0-2.73-2.06-4.8-4.67-4.8
			c-2.65,0-4.71,2.06-4.71,4.8C327.86,59.66,329.92,61.71,332.57,61.71z M331.35,60.23h-1.01v-6.66h2.54c1.57,0,2.35,0.58,2.35,1.89
			c0,1.19-0.75,1.71-1.73,1.84l1.9,2.93h-1.13l-1.76-2.89h-1.16L331.35,60.23L331.35,60.23z M332.55,56.49
			c0.86,0,1.62-0.06,1.62-1.08c0-0.83-0.75-0.98-1.45-0.98h-1.38v2.06H332.55z"/>
	</g>
</g>
</svg>
