<?xml version="1.0" encoding="UTF-8"?>
<svg id="Layer_1" data-name="Layer 1" xmlns="http://www.w3.org/2000/svg" viewBox="0 0 216 216">
  <defs>
    <style>
      .cls-1 {
        fill: #fdb71a;
        stroke-width: 0px;
      }
    </style>
  </defs>
  <path class="cls-1" d="m188.06,61.95L108.43,16.13,28.94,62.19l.14,91.87,79.63,45.81,79.49-46.05-.14-91.87Zm-79.36,133.88l-76.12-43.8-.13-87.82L108.43,20.18l76.12,43.8.13,87.82-75.99,44.03Zm-.25-165.41l-67.13,38.9.12,77.59,67.25,38.69,67.13-38.9-.12-77.59L108.45,30.41Zm33.95,97.06l-31.66,18.34v-36.56l31.61-18.31.06,36.53Zm-65.98-39.92l32.08-18.59,31.66,18.21-31.62,18.32-32.12-17.95Zm29.97,21.72v36.48l-31.6-18.18-.05-35.98,31.66,17.69Zm-62.12-38.27l64.18-37.18,33.89,19.5v29.77l-33.85-19.47-12.94,7.5-51.24,29.66-.05-29.78Zm64.41,111.16l-64.29-36.99-.06-39.06,25.79-14.92.06,39.04,18.21,10.47h0s46.04,26.55,46.04,26.55l-25.73,14.91Zm30.35-17.59l-25.8-14.88,33.8-19.58-.06-39.9v-34.25l25.78,14.83.11,74.17-33.83,19.6Z"/>
</svg>