<?xml version="1.0" encoding="UTF-8"?>
<svg id="Layer_1" data-name="Layer 1" xmlns="http://www.w3.org/2000/svg" viewBox="0 0 216 216">
  <defs>
    <style>
      .cls-1 {
        fill: #fdb71a;
        stroke-width: 0px;
      }
    </style>
  </defs>
  <path class="cls-1" d="m104.82,50c.36,0,.73-.15,1-.44,6.22-6.71,14.46-10.33,23.09-10.22,8.68.11,16.8,3.95,22.87,10.82.26.29.62.46,1,.46s.72-.15.98-.43c.26-.28.4-.64.4-1.03s-.13-.73-.38-1.01c-6.59-7.45-15.41-11.61-24.84-11.74-.16,0-.33,0-.49,0-9.23,0-17.95,3.93-24.59,11.09-.26.28-.4.64-.4,1.03s.13.73.38,1.01c.26.29.61.46.99.46Zm10,11.96c.26.29.61.46.99.46h.01c.37,0,.72-.16.98-.44,3.23-3.48,7.46-5.35,11.91-5.28,4.48.06,8.67,2.04,11.8,5.58.26.29.62.46,1,.46s.72-.16.98-.44c.26-.28.4-.64.4-1.03s-.13-.74-.38-1.01c-3.65-4.13-8.54-6.44-13.77-6.5-.07,0-.14,0-.21,0-5.16,0-10.01,2.18-13.69,6.15h0c-.26.28-.4.64-.4,1.03s.13.73.38,1.01Zm95.05,72.39h-35c1.24-1.35,2.26-2.9,3.06-4.63h.79c8.14,0,14.76-7.61,14.76-16.97v-.99c0-1.69-1.23-3.06-2.71-3.06h-.01s-.06-.07-.06-.15v-7.6c-.02-2.87-.71-5.63-2.06-8.22l-.04-.09c-1.53-2.91-3.94-5.58-6.96-7.74-30.62-21.86-68.82-21.26-104.8,1.65-4.08,2.59-12.97,5.56-16.99,5.67-.44.01-.93.03-1.47.05-4.78.22-9.6,1.12-14.31,2.67l-.21.07c-6.55,2.18-12.62,5.54-18.05,9.98-.25.21-.43.5-.5.83l-1.9,8.77c-.63,2.88-.1,5.9,1.43,8.08.91,1.3,2.1,2.32,3.45,2.94l4.15,1.89c1.87.85,3.81,1.45,5.91,1.82.8,1.87,1.91,3.58,3.24,5.04H6.12c-.52,0-.94.44-.94.98s.42.98.94.98h1.5c6.72,22.68,49.84,39.75,100.62,39.75s93.89-17.06,100.62-39.75h1.01c.52,0,.94-.44.94-.98s-.42-.98-.94-.98Zm-33.07-10.78c-.01.12-.03.23-.05.35l-.02.16c-.06.44-.14.88-.24,1.3l-.03.14c-.02.11-.05.21-.08.32-.29,1.14-.71,2.24-1.29,3.34l-.06.1c-.25.46-.53.92-.86,1.41l-.06.08c-1.41,2.02-3.26,3.61-5.34,4.59-1.63.77-3.36,1.16-5.19,1.17-1.8,0-3.54-.39-5.19-1.17-.5-.24-1.03-.54-1.62-.93-1.44-.96-2.69-2.19-3.75-3.7l-.07-.1c-.3-.44-.57-.89-.87-1.44l-.05-.1c-.53-1.02-.95-2.12-1.25-3.26-.03-.11-.05-.22-.08-.33l-.03-.12c-.1-.43-.18-.86-.24-1.3l-.02-.11c-.02-.13-.04-.26-.05-.4-.07-.66-.11-1.25-.11-1.8,0-8.14,5.98-14.76,13.32-14.76s13.32,6.62,13.32,14.76c0,.54-.04,1.12-.11,1.8Zm-112.63,10.78c1.24-1.35,2.26-2.9,3.06-4.63h82.02c.79,1.73,1.82,3.29,3.06,4.63h-88.13Zm78.1,1.97c-5.74,6.04-19.17,10.04-34.03,10.04s-28.29-4-34.03-10.04h68.06Zm-75.5,0c5.85,8.14,22.45,13.59,41.47,13.59s35.62-5.45,41.47-13.59h4.75c.93.71,1.94,1.31,3,1.8-7.64,9.12-27.27,15.2-49.22,15.2s-41.58-6.09-49.23-15.2c1.06-.48,2.07-1.08,3-1.79h4.75Zm41.47,20.01c24.07,0,45.82-6.79,54.27-16.91.36.03.72.05,1.08.05,3.27,0,6.43-1.09,9.13-3.15h1.66c-6.66,13.64-34.22,23.47-66.14,23.47s-59.48-9.83-66.14-23.47h1.66c2.7,2.06,5.86,3.15,9.13,3.15.36,0,.72-.02,1.08-.05,8.45,10.12,30.2,16.91,54.27,16.91Zm79.54-57.41l-5.39-1.96c-.93-.34-1.63-1.14-1.93-2.15h6.09c.61,1.32,1.02,2.69,1.23,4.1Zm-148.58,1.07c-.15.25-.3.52-.46.82-1.12,2.04-3.09,3.33-5.28,3.45l-1.96.1c2.46-1.67,5.04-3.14,7.7-4.37Zm-1.89,26.12c-1.3-.33-2.56-.77-3.77-1.32l-4.14-1.89c-.9-.41-1.71-1.1-2.33-2-1.05-1.5-1.41-3.61-.96-5.65l1.68-7.76,5.82-.31c3.12-.17,5.93-2,7.51-4.89,1.14-2.07,2.09-3.61,3.82-4.57,4.49-1.47,9.06-2.32,13.58-2.53.52-.02.99-.04,1.42-.05,4.46-.12,13.88-3.25,18.34-6.09,35.03-22.31,72.15-22.94,101.85-1.73,1.85,1.32,3.42,2.85,4.68,4.55h-5.87c-.76,0-1.38.66-1.38,1.47v.39c0,2.73,1.59,5.14,3.95,6.01l6.46,2.34v6.45c0,1.69,1.23,3.07,2.71,3.07h.02s.05.06.05.15v.99c0,7.63-5.24,13.86-11.73,14.03.44-1.64.67-3.32.67-5,0-9.76-7.21-17.7-16.07-17.7s-16.08,7.94-16.08,17.7c0,1.68.22,3.36.67,5h-79.89c.44-1.64.67-3.32.67-5,0-9.76-7.21-17.7-16.07-17.7s-16.07,7.94-16.07,17.7c0,1.46.17,2.92.49,4.34Zm3.96,3.89l.37-.37c-.43-.75-.8-1.54-1.09-2.36v-.12s-.07-.07-.07-.07c-.29-.82-.51-1.66-.66-2.5l-.05-.34c-.05-.34-.11-.68-.14-1.04-.04-.48-.07-.96-.07-1.45,0-8.14,5.98-14.76,13.32-14.76s13.32,6.62,13.32,14.76c0,.55-.04,1.13-.11,1.8-.01.12-.03.23-.05.35l-.02.16c-.06.44-.14.88-.24,1.3l-.03.13c-.02.11-.05.22-.08.33-.29,1.14-.71,2.24-1.24,3.25l-.1.18c-.25.46-.53.92-.86,1.41l-.06.08c-1.41,2.02-3.26,3.61-5.34,4.59-.37.17-.74.32-1.13.46-3.04,1.08-6.34.91-9.25-.46-1.78-.84-3.42-2.15-4.75-3.8l-.39.31.34-.38c-.44-.56-.85-1.15-1.2-1.75l-.43.25Zm-4.56,6.32c6.45,15.61,36.42,26.91,71.53,26.91s65.08-11.3,71.53-26.91h10.51c-6.8,17.4-41.79,30.43-82.04,30.43s-75.24-13.04-82.04-30.43h10.51Zm71.53,37.39c-49.07,0-90.86-16.03-97.8-37.39h11.68c6.57,19.03,43.45,33.33,86.12,33.33s79.54-14.3,86.11-33.33h11.68c-6.94,21.37-48.72,37.39-97.79,37.39Zm-23.94-77.42h.05c.16,0,.65,0,1.42,0,5.21,0,23.34-.22,37.78-3,17.47-3.37,34.47-.14,35.18,0,.35.08.71,0,1-.2.32-.22.55-.58.61-.99.13-.79-.36-1.55-1.1-1.7-.62-.12-15.1-2.94-31.49-.76v-13.73c0-.81-.62-1.47-1.38-1.47s-1.38.66-1.38,1.47v14.14c-.65.11-1.3.22-1.95.35-16.67,3.22-38.51,2.96-38.68,2.96-.33-.04-.65.07-.93.31-.32.28-.52.71-.52,1.13,0,.81.6,1.48,1.36,1.49Zm61.85-40.07c.26.29.62.46,1,.46s.72-.15.98-.44c.26-.28.4-.64.4-1.03s-.13-.73-.38-1.01c-5.12-5.79-11.98-9.03-19.31-9.12-.09,0-.19,0-.28,0-7.24,0-14.05,3.06-19.21,8.62-.26.28-.4.64-.4,1.03s.13.73.38,1.01c.26.29.61.46.99.46.35-.01.73-.15.99-.44,4.64-5,10.77-7.75,17.29-7.75.07,0,.14,0,.21,0,6.58.08,12.73,3,17.34,8.2Z"/>
</svg>