<?xml version="1.0" encoding="iso-8859-1"?>
<!-- Uploaded to: SVG Repo, www.svgrepo.com, Generator: SVG Repo Mixer Tools -->
<!DOCTYPE svg PUBLIC "-//W3C//DTD SVG 1.1//EN" "http://www.w3.org/Graphics/SVG/1.1/DTD/svg11.dtd">
<svg fill="#000000" version="1.1" id="Capa_1" xmlns="http://www.w3.org/2000/svg" xmlns:xlink="http://www.w3.org/1999/xlink"
	 width="800px" height="800px" viewBox="0 0 101.985 101.984"
	 xml:space="preserve">
<g>
	<path d="M67.502,44.202c-1.401,0-2.745,0.099-4.021,0.271V8.163C63.481,3.586,56.087,0,46.648,0
		c-9.439,0-16.833,3.586-16.833,8.163V31.57c-5.843,0.935-9.959,3.586-9.959,6.8v56.449c0,4.018,6.424,7.165,14.625,7.165
		c8.202,0,14.626-3.147,14.626-7.165V81.846c1.272-0.092,2.532-0.252,3.77-0.486v9.958c0,4.018,6.424,7.164,14.625,7.164
		s14.626-3.146,14.626-7.164v-39.95C82.128,47.349,75.704,44.202,67.502,44.202z M79.532,92.663L54.937,62.115l-0.062,0.049v-5.693
		L80.04,86.282l-0.014,5.034C80.026,91.762,79.853,92.217,79.532,92.663z M54.877,65.229l23.169,28.779
		c-1.036,0.68-2.452,1.277-4.162,1.717L54.95,71.215l-0.072,0.057V65.229z M54.877,55.053V55.02c0.006,0.005,0.015,0.01,0.021,0.016
		L54.877,55.053z M57.68,56.69c2.125,0.94,4.812,1.583,7.844,1.776l14.543,18.565l-0.019,6.159L57.68,56.69z M68.098,58.512
		c1.654-0.033,3.225-0.189,4.682-0.459l7.153,9.133l0.162-0.127l-0.019,6.742L68.098,58.512z M80.102,64.159l-5.167-6.597
		c2.152-0.613,3.938-1.488,5.193-2.543L80.102,64.159z M67.502,46.202c7.441,0,12.626,2.722,12.626,5.164
		c0,2.442-5.185,5.164-12.626,5.164c-0.331,0-0.651-0.013-0.973-0.022l-0.039-0.049l-0.061,0.047
		c-6.859-0.246-11.555-2.816-11.555-5.14C54.877,48.924,60.061,46.202,67.502,46.202z M46.648,2c8.741,0,14.833,3.248,14.833,6.163
		s-6.092,6.162-14.833,6.162c-8.741,0-14.833-3.247-14.833-6.162S37.907,2,46.648,2z M34.481,43.534
		c-7.44,0-12.625-2.722-12.625-5.164s5.185-5.164,12.625-5.164c7.441,0,12.626,2.722,12.626,5.164S41.923,43.534,34.481,43.534z
		 M52.877,66.158v2.041v11.117c-1.234,0.251-2.494,0.429-3.77,0.525V67.688v-2.002V38.37c0-4.018-6.424-7.164-14.626-7.164
		c-0.914,0-1.803,0.045-2.666,0.12V12.081c2.816,2.548,8.341,4.244,14.833,4.244c6.492,0,12.017-1.696,14.833-4.244v32.74
		c-5.113,1.104-8.604,3.586-8.604,6.545V66.158z M54.877,91.316v-5.34v-2.119l9.628,12.464
		C58.709,95.715,54.877,93.414,54.877,91.316z M67.149,96.473L54.877,80.585v-6.194l16.82,21.775
		c-1.289,0.198-2.69,0.312-4.195,0.312C67.382,96.48,67.268,96.473,67.149,96.473z"/>
</g>
</svg>
