<?xml version="1.0" encoding="iso-8859-1"?>
<!-- Uploaded to: SVG Repo, www.svgrepo.com, Generator: SVG Repo Mixer Tools -->
<!DOCTYPE svg PUBLIC "-//W3C//DTD SVG 1.1//EN" "http://www.w3.org/Graphics/SVG/1.1/DTD/svg11.dtd">
<svg fill="#000000" height="800px" width="800px" version="1.1" id="Capa_1" xmlns="http://www.w3.org/2000/svg" xmlns:xlink="http://www.w3.org/1999/xlink"
	 viewBox="0 0 294.831 294.831" xml:space="preserve">
<g>
	<path d="M133.493,9.51c0-2.81-1.245-5.476-3.398-7.282c-2.153-1.806-4.999-2.575-7.766-2.083
		C98.981,4.297,77.523,13.905,59.315,27.603c-2.2,1.655-3.574,4.184-3.766,6.931c-0.192,2.747,0.82,5.44,2.767,7.387l49.041,49.041
		c2.998,2.998,7.625,3.65,11.331,1.59c2.741-1.524,5.61-2.845,8.587-3.941c3.737-1.376,6.218-4.936,6.218-8.918V9.51z"/>
	<path d="M163.493,79.694c0,3.983,2.485,7.542,6.224,8.917c16.888,6.211,30.294,19.618,36.505,36.506
		c1.375,3.738,4.936,6.221,8.919,6.221h70.19c2.813,0,5.48-1.246,7.285-3.403c1.805-2.157,2.56-5.002,2.067-7.771
		C283.83,59.134,235.697,11.001,174.667,0.147c-2.767-0.492-5.609,0.267-7.764,2.071s-3.41,4.471-3.41,7.282V79.694z"/>
	<path d="M215.138,161.338c-3.983,0-7.543,2.485-8.917,6.224c-8.643,23.505-31.224,40.273-57.728,40.273
		c-33.964,0-61.497-27.533-61.497-61.497c0-7.583,1.377-14.842,3.889-21.548c1.307-3.488,0.453-7.422-2.181-10.056L38.347,64.377
		c-2.03-2.03-4.869-3.032-7.724-2.729c-2.855,0.303-5.427,1.878-6.984,4.29C8.684,89.11,0,116.708,0,146.338
		c0,82.01,66.483,148.493,148.493,148.493c73.079,0,133.826-52.791,146.191-122.318c0.492-2.767-0.267-5.609-2.071-7.764
		c-1.804-2.155-4.471-3.41-7.282-3.41H215.138z"/>
</g>
</svg>
