<?xml version="1.0" encoding="UTF-8"?>
<svg id="Layer_1" data-name="Layer 1" xmlns="http://www.w3.org/2000/svg" viewBox="0 0 216 216">
  <defs>
    <style>
      .cls-1 {
        fill: #fdb71a;
        stroke-width: 0px;
      }
    </style>
  </defs>
  <path class="cls-1" d="m187.1,62.1c.32.51.88.79,1.44.79.31,0,.63-.09.92-.27.79-.51,1.03-1.56.52-2.36l-.21-.34c-.5-.8-1.55-1.06-2.35-.56-.8.49-1.05,1.55-.56,2.35l.24.38Zm-6.07-8.55c.34.43.83.65,1.34.65.37,0,.74-.12,1.06-.37.74-.58.86-1.66.28-2.4l-.28-.35c-.6-.73-1.67-.84-2.4-.24-.73.6-.84,1.67-.24,2.4l.25.31Zm-7.27-10.52c-.67.67-.67,1.75,0,2.41l.3.3c.33.33.77.5,1.21.5s.87-.17,1.21-.5c.67-.67.67-1.75,0-2.41l-.3-.3c-.67-.67-1.75-.67-2.41,0Zm22.41,37.88c.24.7.9,1.15,1.61,1.15.18,0,.37-.03.56-.09.89-.31,1.36-1.28,1.05-2.17l-.16-.44c-.33-.88-1.3-1.34-2.19-1.01-.88.33-1.33,1.31-1.01,2.19l.13.37Zm-4.01-9.67c.29.61.9.97,1.54.97.25,0,.5-.05.74-.17.85-.41,1.21-1.43.8-2.28l-.19-.4c-.41-.84-1.44-1.19-2.28-.77-.84.42-1.19,1.44-.77,2.28l.18.37Zm8.59,29.64l.05.4c.09.88.83,1.53,1.69,1.53.06,0,.12,0,.18,0,.94-.1,1.62-.94,1.52-1.88l-.05-.44c-.11-.94-.97-1.6-1.89-1.49-.93.11-1.6.96-1.49,1.89Zm-1.78-10.3l.09.4c.18.79.88,1.33,1.66,1.33.13,0,.25-.01.38-.04.92-.21,1.49-1.12,1.28-2.04l-.1-.43c-.22-.92-1.13-1.47-2.05-1.26-.92.22-1.48,1.14-1.26,2.05ZM128.47,20.62l.39.09c.13.03.25.04.38.04.78,0,1.48-.53,1.66-1.33.21-.92-.36-1.83-1.28-2.04l-.44-.1c-.92-.21-1.83.39-2.03,1.31-.2.92.39,1.83,1.31,2.03Zm-10.5-1.75l.21.05h0s.03,0,.03,0l.16.03c.13.03.25.04.38.04.63,0,1.2-.36,1.49-.91.02-.03.02-.06.04-.09.05-.1.11-.2.13-.32,0-.04,0-.08,0-.12,0-.03.02-.06.03-.09,0-.08-.02-.16-.02-.24,0-.1,0-.21-.03-.31-.03-.15-.09-.29-.16-.43-.02-.05-.04-.09-.07-.13-.11-.17-.24-.3-.4-.43,0,0-.02-.02-.03-.02-.23-.17-.49-.3-.79-.34l-.18-.02-.07-.02s-.06,0-.09,0h-.09s0,0,0,0c-.86-.09-1.66.46-1.84,1.31-.2.92.39,1.83,1.31,2.03Zm85.12,90.77c-.94,0-1.71.76-1.71,1.71,0,51.49-41.89,93.38-93.38,93.38S14.61,162.84,14.61,111.35,56.5,17.96,107.99,17.96c.94,0,1.71-.76,1.71-1.71s-.76-1.71-1.71-1.71C54.62,14.55,11.2,57.97,11.2,111.35s43.42,96.8,96.8,96.8,96.8-43.42,96.8-96.8c0-.94-.76-1.71-1.71-1.71ZM138.52,23.48l.41.14c.18.06.37.09.56.09.71,0,1.37-.44,1.61-1.15.31-.89-.16-1.86-1.05-2.17l-.4-.14c-.89-.31-1.86.16-2.17,1.05-.31.89.16,1.86,1.05,2.17Zm24.07,18.28c4.45,0,8.07-3.62,8.07-8.07s-3.62-8.07-8.07-8.07-8.07,3.62-8.07,8.07,3.62,8.07,8.07,8.07Zm0-14.43c3.51,0,6.36,2.85,6.36,6.36s-2.85,6.36-6.36,6.36-6.36-2.85-6.36-6.36,2.85-6.36,6.36-6.36Zm0,19.32c7.14,0,12.95-5.81,12.95-12.96s-5.81-12.96-12.95-12.96-12.96,5.81-12.96,12.96,5.81,12.96,12.96,12.96Zm0-24.21c6.2,0,11.25,5.05,11.25,11.25s-5.05,11.25-11.25,11.25-11.25-5.05-11.25-11.25,5.05-11.25,11.25-11.25Zm-14.39,5.01l.39.19c.24.11.49.17.74.17.64,0,1.25-.36,1.54-.97.41-.85.05-1.87-.8-2.28l-.38-.18c-.85-.41-1.87-.06-2.28.79-.41.85-.06,1.87.79,2.28Z"/>
  <path class="cls-1" d="m135.15,45.79c-21.87-9.06-46.71-6.64-66.46,6.47-.47.31-.75.83-.76,1.39-.01.47.17.92.5,1.24.06.06.13.12.2.17,8.37,6.09,17.11,11.62,26.13,16.6-5.6,8.17-10.73,17.67-15,27.98-4.28,10.32-7.37,20.69-9.19,30.44-5.18-1.5-10.4-2.86-15.66-4.01-.18-10.59,1.82-21.66,6.03-32.37l9.07,3.76c.6.25,1.29.13,1.78-.3.49-.43.69-1.1.52-1.73l-8.72-31.72c-.14-.51-.51-.92-.99-1.12-.49-.2-1.04-.17-1.5.09l-28.6,16.26c-.57.32-.9.94-.86,1.59s.44,1.22,1.05,1.47l9.11,3.77c-6.61,17.09-6.4,35.74.64,52.73,3.62,8.76,8.85,16.54,15.35,23.05,6.49,6.49,14.25,11.7,22.98,15.33.02.01.05.02.07.03,21.87,9.06,46.71,6.64,66.46-6.48.47-.31.75-.83.76-1.39.01-.56-.25-1.09-.7-1.42-8.37-6.09-17.11-11.62-26.13-16.6,5.6-8.17,10.73-17.67,15-27.98,4.28-10.32,7.37-20.69,9.19-30.43,5.18,1.5,10.4,2.86,15.66,4.01.18,10.59-1.82,21.66-6.03,32.37l-9.07-3.76c-.6-.25-1.29-.13-1.78.3-.49.43-.69,1.1-.52,1.73l8.72,31.72c.08.29.23.55.44.75.16.16.34.28.55.37.49.2,1.04.17,1.5-.09l28.6-16.26c.57-.32.9-.94.86-1.59-.04-.65-.45-1.22-1.05-1.47l-9.11-3.77c6.61-17.09,6.4-35.74-.63-52.73-7.25-17.52-20.89-31.15-38.4-38.4Zm-1.45,74.36l-23.47-9.72,10.86-26.21c6.88,2.79,13.91,5.28,21.05,7.45-1.67,9.1-4.53,18.79-8.43,28.48Zm-15.48,29.25c-6.58-3.51-13.3-6.73-20.15-9.62l10.85-26.2,23.47,9.72c-4.1,9.61-8.92,18.48-14.17,26.09Zm-26.04,27.6c5.35-1.65,11.16-5.44,17.13-11.39,3.41-3.39,6.73-7.38,9.93-11.78,8.29,4.56,16.34,9.59,24.08,15.1-15.42,9.45-33.8,12.25-51.14,8.07Zm4.57-34.05c6.6,2.79,13.07,5.92,19.42,9.29-3,4.08-6.1,7.79-9.27,10.95-8.61,8.57-16.88,12.45-23.1,11.02l12.95-31.26Zm-24.64,5.83c0-4.5.43-9.34,1.2-14.36,6.88,2.11,13.66,4.52,20.3,7.21l-12.95,31.27c-5.4-3.38-8.52-11.98-8.54-24.12Zm-18.44-5.82c1.6,6.23,3.99,11.84,7.07,16.7-6.46-6.32-11.6-13.89-15.15-22.47-6.9-16.67-6.9-35.03,0-51.7.17-.42.17-.89,0-1.31-.17-.42-.5-.75-.92-.92l-7.44-3.08,23.66-13.46,7.22,26.24-7.44-3.08c-.42-.17-.89-.17-1.31,0s-.75.51-.92.92c-4.95,11.94-7.23,24.38-6.89,36.24,0,0,0,0,0,0-.06.26-.03.52.03.76.2,5.18.86,10.27,2.1,15.12Zm16.33-9.49c-.84,5.36-1.31,10.52-1.3,15.31.02,7.57,1.16,13.84,3.28,18.63-7.05-6.01-12.26-14.64-15-25.31-1.03-4.03-1.65-8.22-1.93-12.5,5.03,1.12,10.01,2.42,14.96,3.86Zm12.29-30.92l23.47,9.72-10.86,26.21c-6.88-2.79-13.91-5.28-21.05-7.45,1.67-9.1,4.53-18.79,8.43-28.48Zm15.48-29.25c6.58,3.51,13.3,6.73,20.15,9.62l-10.85,26.2-23.47-9.72c4.1-9.61,8.92-18.48,14.17-26.09Zm26.04-27.6c-5.35,1.65-11.16,5.44-17.13,11.39-3.41,3.39-6.73,7.38-9.93,11.78-8.29-4.56-16.34-9.59-24.08-15.1,15.42-9.45,33.8-12.25,51.14-8.07Zm-4.57,34.05c-6.6-2.79-13.07-5.92-19.42-9.29,3-4.08,6.1-7.79,9.27-10.95,8.61-8.57,16.88-12.45,23.1-11.02l-12.95,31.26Zm18.18-28.37c4.13,4.13,6.44,12.03,6.46,22.54,0,4.5-.42,9.34-1.2,14.36-6.88-2.11-13.66-4.52-20.3-7.21l12.97-31.3c.73.45,1.43.97,2.07,1.61Zm21.59,29.21c1.03,4.03,1.65,8.22,1.93,12.5-5.02-1.12-10.01-2.42-14.95-3.86.84-5.36,1.31-10.52,1.3-15.31-.02-7.56-1.14-13.83-3.26-18.62,7.04,6.01,12.25,14.64,14.98,25.29Zm-3.76-17.55c6.46,6.29,11.6,13.89,15.15,22.47,6.91,16.67,6.91,35.03,0,51.7-.17.42-.17.89,0,1.31.17.42.5.75.92.92l7.44,3.08-23.66,13.46-7.22-26.24,7.44,3.08c.42.17.89.17,1.31,0s.75-.51.92-.92c4.95-11.94,7.23-24.38,6.89-36.24,0,0,0,0,0,0,.06-.26.03-.52-.03-.76-.2-5.18-.86-10.27-2.1-15.13-1.6-6.23-3.99-11.84-7.07-16.7Z"/>
</svg>