<?xml version="1.0" encoding="UTF-8" standalone="no"?>
<svg
   id="Layer_1"
   data-name="Layer 1"
   viewBox="0 0 216 216"
   version="1.1"
   sodipodi:docname="help.svg"
   inkscape:version="1.3 (0e150ed6c4, 2023-07-21)"
   xmlns:inkscape="http://www.inkscape.org/namespaces/inkscape"
   xmlns:sodipodi="http://sodipodi.sourceforge.net/DTD/sodipodi-0.dtd"
   xmlns="http://www.w3.org/2000/svg"
   xmlns:svg="http://www.w3.org/2000/svg">
  <sodipodi:namedview
     id="namedview2"
     pagecolor="#ffffff"
     bordercolor="#000000"
     borderopacity="0.25"
     inkscape:showpageshadow="2"
     inkscape:pageopacity="0.0"
     inkscape:pagecheckerboard="0"
     inkscape:deskcolor="#d1d1d1"
     inkscape:zoom="2.0023148"
     inkscape:cx="65.424277"
     inkscape:cy="154.5711"
     inkscape:window-width="1920"
     inkscape:window-height="1121"
     inkscape:window-x="-9"
     inkscape:window-y="-9"
     inkscape:window-maximized="1"
     inkscape:current-layer="Layer_1" />
  <defs
     id="defs1">
    <style
       id="style1">&#10;      .cls-1 {&#10;        fill: #fdb71a;&#10;        stroke-width: 0px;&#10;      }&#10;    </style>
  </defs>
  <path
     class="cls-1"
     d="m -52.9,62.1 c 0.32,0.51 0.88,0.79 1.44,0.79 0.31,0 0.63,-0.09 0.92,-0.27 0.79,-0.51 1.03,-1.56 0.52,-2.36 l -0.21,-0.34 c -0.5,-0.8 -1.55,-1.06 -2.35,-0.56 -0.8,0.49 -1.05,1.55 -0.56,2.35 l 0.24,0.38 z m -6.07,-8.55 c 0.34,0.43 0.83,0.65 1.34,0.65 0.37,0 0.74,-0.12 1.06,-0.37 0.74,-0.58 0.86,-1.66 0.28,-2.4 l -0.28,-0.35 c -0.6,-0.73 -1.67,-0.84 -2.4,-0.24 -0.73,0.6 -0.84,1.67 -0.24,2.4 l 0.25,0.31 z m -7.27,-10.52 c -0.67,0.67 -0.67,1.75 0,2.41 l 0.3,0.3 c 0.33,0.33 0.77,0.5 1.21,0.5 0.44,0 0.87,-0.17 1.21,-0.5 0.67,-0.67 0.67,-1.75 0,-2.41 l -0.3,-0.3 c -0.67,-0.67 -1.75,-0.67 -2.41,0 z m 22.41,37.88 c 0.24,0.7 0.9,1.15 1.61,1.15 0.18,0 0.37,-0.03 0.56,-0.09 0.89,-0.31 1.36,-1.28 1.05,-2.17 l -0.16,-0.44 c -0.33,-0.88 -1.3,-1.34 -2.19,-1.01 -0.88,0.33 -1.33,1.31 -1.01,2.19 l 0.13,0.37 z m -4.01,-9.67 c 0.29,0.61 0.9,0.97 1.54,0.97 0.25,0 0.5,-0.05 0.74,-0.17 0.85,-0.41 1.21,-1.43 0.8,-2.28 l -0.19,-0.4 c -0.41,-0.84 -1.44,-1.19 -2.28,-0.77 -0.84,0.42 -1.19,1.44 -0.77,2.28 l 0.18,0.37 z m 8.59,29.64 0.05,0.4 c 0.09,0.88 0.83,1.53 1.69,1.53 0.06,0 0.12,0 0.18,0 0.94,-0.1 1.62,-0.94 1.52,-1.88 l -0.05,-0.44 c -0.11,-0.94 -0.97,-1.6 -1.89,-1.49 -0.93,0.11 -1.6,0.96 -1.49,1.89 z m -1.78,-10.3 0.09,0.4 c 0.18,0.79 0.88,1.33 1.66,1.33 0.13,0 0.25,-0.01 0.38,-0.04 0.92,-0.21 1.49,-1.12 1.28,-2.04 l -0.1,-0.43 c -0.22,-0.92 -1.13,-1.47 -2.05,-1.26 -0.92,0.22 -1.48,1.14 -1.26,2.05 z m -70.5,-69.96 0.39,0.09 c 0.13,0.03 0.25,0.04 0.38,0.04 0.78,0 1.48,-0.53 1.66,-1.33 0.21,-0.92 -0.36,-1.83 -1.28,-2.04 l -0.44,-0.1 c -0.92,-0.21 -1.83,0.39 -2.03,1.31 -0.2,0.92 0.39,1.83 1.31,2.03 z m -10.5,-1.75 0.21,0.05 v 0 c 0,0 0.03,0 0.03,0 l 0.16,0.03 c 0.13,0.03 0.25,0.04 0.38,0.04 0.63,0 1.2,-0.36 1.49,-0.91 0.02,-0.03 0.02,-0.06 0.04,-0.09 0.05,-0.1 0.11,-0.2 0.13,-0.32 0,-0.04 0,-0.08 0,-0.12 0,-0.03 0.02,-0.06 0.03,-0.09 0,-0.08 -0.02,-0.16 -0.02,-0.24 0,-0.1 0,-0.21 -0.03,-0.31 -0.03,-0.15 -0.09,-0.29 -0.16,-0.43 -0.02,-0.05 -0.04,-0.09 -0.07,-0.13 -0.11,-0.17 -0.24,-0.3 -0.4,-0.43 0,0 -0.02,-0.02 -0.03,-0.02 -0.23,-0.17 -0.49,-0.3 -0.79,-0.34 l -0.18,-0.02 -0.07,-0.02 c 0,0 -0.06,0 -0.09,0 h -0.09 c 0,0 0,0 0,0 -0.86,-0.09 -1.66,0.46 -1.84,1.31 -0.2,0.92 0.39,1.83 1.31,2.03 z m 85.12,90.77 c -0.94,0 -1.71,0.76 -1.71,1.71 0,51.49 -41.89,93.38 -93.38,93.38 -51.49,0 -93.39,-41.89 -93.39,-93.38 0,-51.49 41.89,-93.39 93.38,-93.39 0.94,0 1.71,-0.76 1.71,-1.71 0,-0.95 -0.76,-1.71 -1.71,-1.71 -53.37,0.01 -96.79,43.43 -96.79,96.81 0,53.38 43.42,96.8 96.8,96.8 53.38,0 96.8,-43.42 96.8,-96.8 0,-0.94 -0.76,-1.71 -1.71,-1.71 z m -64.57,-86.16 0.41,0.14 c 0.18,0.06 0.37,0.09 0.56,0.09 0.71,0 1.37,-0.44 1.61,-1.15 0.31,-0.89 -0.16,-1.86 -1.05,-2.17 l -0.4,-0.14 c -0.89,-0.31 -1.86,0.16 -2.17,1.05 -0.31,0.89 0.16,1.86 1.05,2.17 z m 24.07,18.28 c 4.45,0 8.07,-3.62 8.07,-8.07 0,-4.45 -3.62,-8.07 -8.07,-8.07 -4.45,0 -8.07,3.62 -8.07,8.07 0,4.45 3.62,8.07 8.07,8.07 z m 0,-14.43 c 3.51,0 6.36,2.85 6.36,6.36 0,3.51 -2.85,6.36 -6.36,6.36 -3.51,0 -6.36,-2.85 -6.36,-6.36 0,-3.51 2.85,-6.36 6.36,-6.36 z m 0,19.32 c 7.14,0 12.95,-5.81 12.95,-12.96 0,-7.15 -5.81,-12.96 -12.95,-12.96 -7.14,0 -12.96,5.81 -12.96,12.96 0,7.15 5.81,12.96 12.96,12.96 z m 0,-24.21 c 6.2,0 11.25,5.05 11.25,11.25 0,6.2 -5.05,11.25 -11.25,11.25 -6.2,0 -11.25,-5.05 -11.25,-11.25 0,-6.2 5.05,-11.25 11.25,-11.25 z m -14.39,5.01 0.39,0.19 c 0.24,0.11 0.49,0.17 0.74,0.17 0.64,0 1.25,-0.36 1.54,-0.97 0.41,-0.85 0.05,-1.87 -0.8,-2.28 l -0.38,-0.18 c -0.85,-0.41 -1.87,-0.06 -2.28,0.79 -0.41,0.85 -0.06,1.87 0.79,2.28 z"
     id="path1" />
  <path
     class="cls-1"
     d="m 335.15,45.79 c -21.87,-9.06 -46.71,-6.64 -66.46,6.47 -0.47,0.31 -0.75,0.83 -0.76,1.39 -0.01,0.47 0.17,0.92 0.5,1.24 0.06,0.06 0.13,0.12 0.2,0.17 8.37,6.09 17.11,11.62 26.13,16.6 -5.6,8.17 -10.73,17.67 -15,27.98 -4.28,10.32 -7.37,20.69 -9.19,30.44 -5.18,-1.5 -10.4,-2.86 -15.66,-4.01 -0.18,-10.59 1.82,-21.66 6.03,-32.37 l 9.07,3.76 c 0.6,0.25 1.29,0.13 1.78,-0.3 0.49,-0.43 0.69,-1.1 0.52,-1.73 l -8.72,-31.72 c -0.14,-0.51 -0.51,-0.92 -0.99,-1.12 -0.49,-0.2 -1.04,-0.17 -1.5,0.09 l -28.6,16.26 c -0.57,0.32 -0.9,0.94 -0.86,1.59 0.04,0.65 0.44,1.22 1.05,1.47 l 9.11,3.77 c -6.61,17.09 -6.4,35.74 0.64,52.73 3.62,8.76 8.85,16.54 15.35,23.05 6.49,6.49 14.25,11.7 22.98,15.33 0.02,0.01 0.05,0.02 0.07,0.03 21.87,9.06 46.71,6.64 66.46,-6.48 0.47,-0.31 0.75,-0.83 0.76,-1.39 0.01,-0.56 -0.25,-1.09 -0.7,-1.42 -8.37,-6.09 -17.11,-11.62 -26.13,-16.6 5.6,-8.17 10.73,-17.67 15,-27.98 4.28,-10.32 7.37,-20.69 9.19,-30.43 5.18,1.5 10.4,2.86 15.66,4.01 0.18,10.59 -1.82,21.66 -6.03,32.37 l -9.07,-3.76 c -0.6,-0.25 -1.29,-0.13 -1.78,0.3 -0.49,0.43 -0.69,1.1 -0.52,1.73 l 8.72,31.72 c 0.08,0.29 0.23,0.55 0.44,0.75 0.16,0.16 0.34,0.28 0.55,0.37 0.49,0.2 1.04,0.17 1.5,-0.09 l 28.6,-16.26 c 0.57,-0.32 0.9,-0.94 0.86,-1.59 -0.04,-0.65 -0.45,-1.22 -1.05,-1.47 l -9.11,-3.77 c 6.61,-17.09 6.4,-35.74 -0.63,-52.73 -7.25,-17.52 -20.89,-31.15 -38.4,-38.4 z m -1.45,74.36 -23.47,-9.72 10.86,-26.21 c 6.88,2.79 13.91,5.28 21.05,7.45 -1.67,9.1 -4.53,18.79 -8.43,28.48 z m -15.48,29.25 c -6.58,-3.51 -13.3,-6.73 -20.15,-9.62 l 10.85,-26.2 23.47,9.72 c -4.1,9.61 -8.92,18.48 -14.17,26.09 z M 292.18,177 c 5.35,-1.65 11.16,-5.44 17.13,-11.39 3.41,-3.39 6.73,-7.38 9.93,-11.78 8.29,4.56 16.34,9.59 24.08,15.1 -15.42,9.45 -33.8,12.25 -51.14,8.07 z m 4.57,-34.05 c 6.6,2.79 13.07,5.92 19.42,9.29 -3,4.08 -6.1,7.79 -9.27,10.95 -8.61,8.57 -16.88,12.45 -23.1,11.02 z m -24.64,5.83 c 0,-4.5 0.43,-9.34 1.2,-14.36 6.88,2.11 13.66,4.52 20.3,7.21 l -12.95,31.27 c -5.4,-3.38 -8.52,-11.98 -8.54,-24.12 z m -18.44,-5.82 c 1.6,6.23 3.99,11.84 7.07,16.7 -6.46,-6.32 -11.6,-13.89 -15.15,-22.47 -6.9,-16.67 -6.9,-35.03 0,-51.7 0.17,-0.42 0.17,-0.89 0,-1.31 -0.17,-0.42 -0.5,-0.75 -0.92,-0.92 l -7.44,-3.08 23.66,-13.46 7.22,26.24 -7.44,-3.08 c -0.42,-0.17 -0.89,-0.17 -1.31,0 -0.42,0.17 -0.75,0.51 -0.92,0.92 -4.95,11.94 -7.23,24.38 -6.89,36.24 0,0 0,0 0,0 -0.06,0.26 -0.03,0.52 0.03,0.76 0.2,5.18 0.86,10.27 2.1,15.12 z M 270,133.47 c -0.84,5.36 -1.31,10.52 -1.3,15.31 0.02,7.57 1.16,13.84 3.28,18.63 -7.05,-6.01 -12.26,-14.64 -15,-25.31 -1.03,-4.03 -1.65,-8.22 -1.93,-12.5 5.03,1.12 10.01,2.42 14.96,3.86 z m 12.29,-30.92 23.47,9.72 -10.86,26.21 c -6.88,-2.79 -13.91,-5.28 -21.05,-7.45 1.67,-9.1 4.53,-18.79 8.43,-28.48 z M 297.77,73.3 c 6.58,3.51 13.3,6.73 20.15,9.62 l -10.85,26.2 -23.47,-9.72 c 4.1,-9.61 8.92,-18.48 14.17,-26.09 z m 26.04,-27.6 c -5.35,1.65 -11.16,5.44 -17.13,11.39 -3.41,3.39 -6.73,7.38 -9.93,11.78 -8.29,-4.56 -16.34,-9.59 -24.08,-15.1 15.42,-9.45 33.8,-12.25 51.14,-8.07 z m -4.57,34.05 c -6.6,-2.79 -13.07,-5.92 -19.42,-9.29 3,-4.08 6.1,-7.79 9.27,-10.95 8.61,-8.57 16.88,-12.45 23.1,-11.02 z m 18.18,-28.37 c 4.13,4.13 6.44,12.03 6.46,22.54 0,4.5 -0.42,9.34 -1.2,14.36 -6.88,-2.11 -13.66,-4.52 -20.3,-7.21 l 12.97,-31.3 c 0.73,0.45 1.43,0.97 2.07,1.61 z m 21.59,29.21 c 1.03,4.03 1.65,8.22 1.93,12.5 -5.02,-1.12 -10.01,-2.42 -14.95,-3.86 0.84,-5.36 1.31,-10.52 1.3,-15.31 -0.02,-7.56 -1.14,-13.83 -3.26,-18.62 7.04,6.01 12.25,14.64 14.98,25.29 z m -3.76,-17.55 c 6.46,6.29 11.6,13.89 15.15,22.47 6.91,16.67 6.91,35.03 0,51.7 -0.17,0.42 -0.17,0.89 0,1.31 0.17,0.42 0.5,0.75 0.92,0.92 l 7.44,3.08 -23.66,13.46 -7.22,-26.24 7.44,3.08 c 0.42,0.17 0.89,0.17 1.31,0 0.42,-0.17 0.75,-0.51 0.92,-0.92 4.95,-11.94 7.23,-24.38 6.89,-36.24 0,0 0,0 0,0 0.06,-0.26 0.03,-0.52 -0.03,-0.76 -0.2,-5.18 -0.86,-10.27 -2.1,-15.13 -1.6,-6.23 -3.99,-11.84 -7.07,-16.7 z"
     id="path2"
     style="fill:#fdb71a;fill-opacity:1" />
  <ellipse
     style="fill:none;stroke:#000000;stroke-width:15.086;stroke-dasharray:none;stroke-opacity:1"
     id="path1-7"
     cx="107.98761"
     cy="109.51674"
     rx="94.668106"
     ry="94.919792" />
  <path
     style="fill:#000000;fill-opacity:0.764706;stroke:none;stroke-width:0.956892;stroke-dasharray:none;stroke-opacity:1"
     d="m 103.23931,427.98784 c -0.4807,-0.0542 -2.11006,-0.2231 -3.62081,-0.37525 -10.57761,-1.06528 -21.87266,-4.35568 -32.03427,-9.332 -27.899475,-13.66286 -47.735335,-40.39823 -52.716463,-71.05284 -0.998618,-6.14565 -1.14996,-8.24554 -1.142813,-15.85665 0.0054,-5.69824 0.114087,-8.32811 0.454289,-10.98728 2.41035,-18.84046 9.29335,-35.17159 20.996271,-49.81735 3.275047,-4.09859 10.154176,-10.95508 14.375936,-14.32861 14.75914,-11.79376 31.30225,-18.63971 50.56647,-20.92565 3.63812,-0.43171 16.08905,-0.43171 19.72717,0 7.54128,0.89487 13.80991,2.27469 20.6226,4.53936 32.66719,10.8592 57.14455,38.61615 64.02815,72.60692 1.61243,7.96208 2.26574,18.32401 1.64902,26.15423 -1.88243,23.90026 -12.03224,45.64607 -29.02304,62.18145 -15.28634,14.8766 -33.89365,23.80015 -55.77847,26.74981 -2.59683,0.35 -16.01941,0.67909 -18.10404,0.44386 z m 17.47977,-3.93909 c 4.55042,-0.57388 7.57479,-1.13563 11.79019,-2.18993 26.0214,-6.50814 47.88777,-23.88872 60.12061,-47.78714 9.28059,-18.13081 12.33545,-38.88765 8.72836,-59.30636 -2.26575,-12.8257 -7.99664,-26.50104 -15.53503,-37.07046 -6.03786,-8.46555 -14.16064,-16.61144 -22.18134,-22.24446 -24.43004,-17.15743 -55.04891,-21.65405 -83.26298,-12.22782 -13.03543,4.3551 -24.92562,11.62316 -34.92185,21.34653 -7.932372,7.71585 -13.55918,15.37084 -18.417989,25.05677 -12.027904,23.97734 -13.170132,51.69606 -3.165699,76.82271 8.842801,22.20916 26.645128,40.61334 48.651508,50.29629 8.78301,3.86459 18.77314,6.52162 27.71791,7.372 1.57943,0.15016 3.26498,0.31853 3.74567,0.37416 1.89886,0.21973 14.0226,-0.10076 16.73064,-0.44229 z"
     id="path3" />
  <text
     xml:space="preserve"
     style="font-style:normal;font-variant:normal;font-weight:normal;font-stretch:normal;font-size:151.248px;font-family:Bahnschrift;-inkscape-font-specification:Bahnschrift;fill:#000000;fill-opacity:0.764706;stroke:none;stroke-width:4.34687;stroke-dasharray:none;stroke-opacity:1"
     x="72.365288"
     y="166.08344"
     id="text3"
     transform="scale(1.0519613,0.95060531)"><tspan
       sodipodi:role="line"
       id="tspan3"
       x="72.365288"
       y="166.08344"
       style="stroke-width:4.34687">?</tspan></text>
  <path
     style="fill:#000000;fill-opacity:0.764706;stroke:none;stroke-width:5.71397;stroke-dasharray:none;stroke-opacity:1"
     d="m 100.16523,126.70168 c 0.62192,-9.02579 3.60341,-15.3375 12.70904,-26.90454 2.85441,-3.62603 6.01912,-8.174054 7.03266,-10.106743 1.66347,-3.171977 1.84126,-4.011916 1.82672,-8.630126 -0.0214,-6.806435 -1.62874,-9.752382 -6.54734,-12.000125 -4.74685,-2.169258 -12.13897,-1.390888 -15.32279,1.613448 -2.2564,2.129205 -4.113242,6.238927 -4.482791,9.921692 L 95.063871,83.75298 H 87.39913 79.73439 l 0.01038,-2.019533 c 0.0057,-1.110741 0.403074,-3.694718 0.883072,-5.742169 2.394987,-10.215907 9.653468,-17.641883 19.578008,-20.029787 6.62103,-1.59306 17.2916,-0.680302 23.46928,2.007557 9.14882,3.980576 14.64153,14.122421 13.66837,25.237544 -0.66127,7.552653 -2.30343,10.531438 -13.8097,25.050038 -4.77232,6.02172 -7.20953,11.48393 -8.16077,18.28969 l -0.71798,5.13688 h -7.4165 -7.41652 z"
     id="path5" />
  <path
     style="fill:#000000;fill-opacity:0.764706;stroke:none;stroke-width:5.71397;stroke-dasharray:none;stroke-opacity:1"
     d="m 99.40115,150.2629 v -7.27032 h 8.0455 8.0455 v 7.27032 7.2703 h -8.0455 -8.0455 z"
     id="path6" />
</svg>
