<?xml version="1.0" encoding="UTF-8"?>
<svg id="Layer_1" data-name="Layer 1" xmlns="http://www.w3.org/2000/svg" viewBox="0 0 216 216">
  <defs>
    <style>
      .cls-1 {
        fill: #fdb71a;
        stroke-width: 0px;
      }
    </style>
  </defs>
  <path class="cls-1" d="m200.18,115.66l-12.98-6.16v3.83c-9.76.54-12.57,3.84-13.05,4.54-1.31,1.88-2.13,2.39-2.41,2.52-.34-.31-.83-1.26-1.02-2l-4.62-20.01c-1.12-4.23-2.73-8.55-6.26-8.57-3.64-.03-5.56,4.96-6.38,7.92l-8.77,48.51c-.54,2.26-1.02,3.83-1.41,4.9-.4-1.45-.78-3.35-1-5.14-.16-2.7-4.05-66.3-9.94-87.69-2.57-9.34-5.03-13.06-8.44-12.91-4.1.19-6,6.58-6.87,11.89l-.02.27c-.03.71-3.05,70.98-8.48,92.89-.87,3.5-1.6,5.46-2.11,6.55-.6-1.5-1.26-3.95-1.62-6.26-.26-4.11-4.62-71.22-9.93-90.56-2.14-7.78-4.26-10.95-7.4-10.78-3.86.17-5.72,6.06-6.59,10.98l-.03.26c-.03.54-3.09,54.57-7.85,78.84-.68,3.46-1.27,5.7-1.75,7.13-.51-1.85-1-4.41-1.29-6.86-.11-1.51-2.69-37.13-6.63-53.93-3.33-14.21-6.22-16.04-8.89-15.86-2.96.18-5.2,2.99-6.46,16.16-1.4,14.6-4.11,29.97-6.24,36.4-.03-.15-.06-.3-.09-.46-1.8-9.55-3.74-13.48-6.9-14-3.26-.54-5.24,2.75-6.83,5.39-1.15,1.92-7.29,2.05-11.27,1.41l-.83,4.57c2.15.35,13.04,1.81,16.35-3.68.39-.65,1.19-1.98,1.81-2.71.57.94,1.65,3.43,2.86,9.83.45,2.4,1.28,6.83,4.59,6.83.05,0,.1,0,.15,0,2.3-.09,4.44-1.38,7.41-16.29,1.54-7.75,3.03-18.05,3.88-26.88.62-6.49,1.42-9.57,1.97-11.01.8,1.41,2.13,4.53,3.72,11.31,3.86,16.46,6.5,52.88,6.53,53.35,1.54,13.08,4.65,13.18,5.97,13.23,3.12.07,4.82-3.19,6.76-13.07,4.7-23.96,7.74-76.24,7.92-79.3.45-2.44,1.26-5,1.95-6.33.54.9,1.4,2.8,2.46,6.65,5.24,19.09,9.74,89.07,9.79,89.77l.02.2c1.74,11.23,5.15,11.36,6.27,11.41.06,0,.11,0,.17,0,2.97,0,4.92-3.18,6.91-11.22,5.47-22.07,8.41-89.19,8.6-93.63.5-2.94,1.46-6.03,2.26-7.37.65.92,1.87,3.24,3.45,8.98,5.76,20.94,9.75,86.13,9.8,86.92,1.34,11.11,4.41,11.27,5.56,11.33,3.24.16,4.86-3.7,6.52-10.58l8.73-48.34c.38-1.36,1.01-2.84,1.55-3.74.38.71.94,2.01,1.56,4.36l4.61,19.97c.2.83,1.4,5,4.93,5.59,3.72.64,6.46-3.29,7.28-4.49.02-.02,1.93-2.09,9.04-2.54v3.84l12.98-6.15Z"/>
</svg>